<svg xmlns="http://www.w3.org/2000/svg" xmlns:xlink="http://www.w3.org/1999/xlink" width="216" zoomAndPan="magnify" viewBox="0 0 162 121.500001" height="162" preserveAspectRatio="xMidYMid meet" version="1.2"><defs><clipPath id="c499ef112f"><path d="M 0.332031 0 L 161.667969 0 L 161.667969 121.003906 L 0.332031 121.003906 Z M 0.332031 0 "/></clipPath><clipPath id="bd8ede3e2b"><path d="M 2.988281 22.6875 L 159 22.6875 L 159 98.3125 L 2.988281 98.3125 Z M 2.988281 22.6875 "/></clipPath><clipPath id="3ef5ffbdcf"><path d="M 2.996094 22.6875 L 158.644531 22.6875 L 158.644531 98.128906 L 2.996094 98.128906 Z M 2.996094 22.6875 "/></clipPath><clipPath id="8b2faef5d3"><path d="M 8.398438 91 L 10 91 L 10 91.746094 L 8.398438 91.746094 Z M 8.398438 91 "/></clipPath><clipPath id="1f25e57ca3"><path d="M 10 91 L 12 91 L 12 91.746094 L 10 91.746094 Z M 10 91 "/></clipPath><clipPath id="bcf5ca0fc3"><path d="M 11 91 L 13 91 L 13 91.746094 L 11 91.746094 Z M 11 91 "/></clipPath><clipPath id="1d8f23b380"><path d="M 13 91 L 15 91 L 15 91.746094 L 13 91.746094 Z M 13 91 "/></clipPath><clipPath id="439356aadd"><path d="M 14 90 L 17 90 L 17 91.746094 L 14 91.746094 Z M 14 90 "/></clipPath><clipPath id="0512342769"><path d="M 16 90 L 18 90 L 18 91.746094 L 16 91.746094 Z M 16 90 "/></clipPath><clipPath id="72ae621a53"><path d="M 18 90 L 20 90 L 20 91.746094 L 18 91.746094 Z M 18 90 "/></clipPath><clipPath id="fe94d23719"><path d="M 19 90 L 21 90 L 21 91.746094 L 19 91.746094 Z M 19 90 "/></clipPath><clipPath id="888d6023af"><path d="M 21 89 L 23 89 L 23 91.746094 L 21 91.746094 Z M 21 89 "/></clipPath><clipPath id="eef708f599"><path d="M 23 89 L 25 89 L 25 91.746094 L 23 91.746094 Z M 23 89 "/></clipPath><clipPath id="f4f6de8b60"><path d="M 24 88 L 26 88 L 26 91.746094 L 24 91.746094 Z M 24 88 "/></clipPath><clipPath id="d6faf5fc79"><path d="M 26 84 L 28 84 L 28 91.746094 L 26 91.746094 Z M 26 84 "/></clipPath><clipPath id="3d97d49e07"><path d="M 28 80 L 30 80 L 30 91.746094 L 28 91.746094 Z M 28 80 "/></clipPath><clipPath id="822dda277c"><path d="M 29 78 L 31 78 L 31 91.746094 L 29 91.746094 Z M 29 78 "/></clipPath><clipPath id="2a03eb1b30"><path d="M 31 79 L 33 79 L 33 91.746094 L 31 91.746094 Z M 31 79 "/></clipPath><clipPath id="378d5b8cd6"><path d="M 32 85 L 35 85 L 35 91.746094 L 32 91.746094 Z M 32 85 "/></clipPath><clipPath id="9bbee32790"><path d="M 34 89 L 36 89 L 36 91.746094 L 34 91.746094 Z M 34 89 "/></clipPath><clipPath id="f7fee8da5f"><path d="M 36 89 L 38 89 L 38 91.746094 L 36 91.746094 Z M 36 89 "/></clipPath><clipPath id="eeac62c86c"><path d="M 37 90 L 39 90 L 39 91.746094 L 37 91.746094 Z M 37 90 "/></clipPath><clipPath id="a77648a028"><path d="M 39 90 L 41 90 L 41 91.746094 L 39 91.746094 Z M 39 90 "/></clipPath><clipPath id="4068d101cf"><path d="M 41 90 L 43 90 L 43 91.746094 L 41 91.746094 Z M 41 90 "/></clipPath><clipPath id="7957d699f0"><path d="M 42 90 L 44 90 L 44 91.746094 L 42 91.746094 Z M 42 90 "/></clipPath><clipPath id="0148a0c07d"><path d="M 44 89 L 46 89 L 46 91.746094 L 44 91.746094 Z M 44 89 "/></clipPath><clipPath id="c9a7c9a53d"><path d="M 45 89 L 48 89 L 48 91.746094 L 45 91.746094 Z M 45 89 "/></clipPath><clipPath id="908a95eeaf"><path d="M 47 88 L 49 88 L 49 91.746094 L 47 91.746094 Z M 47 88 "/></clipPath><clipPath id="63a2e2472a"><path d="M 49 87 L 51 87 L 51 91.746094 L 49 91.746094 Z M 49 87 "/></clipPath><clipPath id="1c934dbce2"><path d="M 50 85 L 53 85 L 53 91.746094 L 50 91.746094 Z M 50 85 "/></clipPath><clipPath id="805478e9b0"><path d="M 52 82 L 54 82 L 54 91.746094 L 52 91.746094 Z M 52 82 "/></clipPath><clipPath id="5b774eff96"><path d="M 54 82 L 56 82 L 56 91.746094 L 54 91.746094 Z M 54 82 "/></clipPath><clipPath id="86519cb9e8"><path d="M 55 82 L 57 82 L 57 91.746094 L 55 91.746094 Z M 55 82 "/></clipPath><clipPath id="2baee5f75d"><path d="M 57 83 L 59 83 L 59 91.746094 L 57 91.746094 Z M 57 83 "/></clipPath><clipPath id="707fb1339e"><path d="M 59 84 L 61 84 L 61 91.746094 L 59 91.746094 Z M 59 84 "/></clipPath><clipPath id="611c39a8f2"><path d="M 60 86 L 62 86 L 62 91.746094 L 60 91.746094 Z M 60 86 "/></clipPath><clipPath id="5a6a9183c8"><path d="M 62 87 L 64 87 L 64 91.746094 L 62 91.746094 Z M 62 87 "/></clipPath><clipPath id="c79f84f886"><path d="M 63 88 L 66 88 L 66 91.746094 L 63 91.746094 Z M 63 88 "/></clipPath><clipPath id="156c7c6932"><path d="M 65 89 L 67 89 L 67 91.746094 L 65 91.746094 Z M 65 89 "/></clipPath><clipPath id="50cdf4b012"><path d="M 67 89 L 69 89 L 69 91.746094 L 67 91.746094 Z M 67 89 "/></clipPath><clipPath id="a2d5cd1c1f"><path d="M 68 90 L 70 90 L 70 91.746094 L 68 91.746094 Z M 68 90 "/></clipPath><clipPath id="9112258076"><path d="M 70 90 L 72 90 L 72 91.746094 L 70 91.746094 Z M 70 90 "/></clipPath><clipPath id="7c4a2bd5fa"><path d="M 72 89 L 74 89 L 74 91.746094 L 72 91.746094 Z M 72 89 "/></clipPath><clipPath id="395732f7b5"><path d="M 73 88 L 75 88 L 75 91.746094 L 73 91.746094 Z M 73 88 "/></clipPath><clipPath id="acc5284176"><path d="M 75 85 L 77 85 L 77 91.746094 L 75 91.746094 Z M 75 85 "/></clipPath><clipPath id="487d2cb0aa"><path d="M 77 81 L 79 81 L 79 91.746094 L 77 91.746094 Z M 77 81 "/></clipPath><clipPath id="0c127fd2bc"><path d="M 78 77 L 80 77 L 80 91.746094 L 78 91.746094 Z M 78 77 "/></clipPath><clipPath id="f893b6e444"><path d="M 80 77 L 82 77 L 82 91.746094 L 80 91.746094 Z M 80 77 "/></clipPath><clipPath id="4997e697ee"><path d="M 81 83 L 84 83 L 84 91.746094 L 81 91.746094 Z M 81 83 "/></clipPath><clipPath id="1573bcacab"><path d="M 83 89 L 85 89 L 85 91.746094 L 83 91.746094 Z M 83 89 "/></clipPath><clipPath id="798c626f83"><path d="M 85 90 L 87 90 L 87 91.746094 L 85 91.746094 Z M 85 90 "/></clipPath><clipPath id="3abfe4e18d"><path d="M 86 90 L 88 90 L 88 91.746094 L 86 91.746094 Z M 86 90 "/></clipPath><clipPath id="63556086d7"><path d="M 88 90 L 90 90 L 90 91.746094 L 88 91.746094 Z M 88 90 "/></clipPath><clipPath id="739241b436"><path d="M 90 89 L 92 89 L 92 91.746094 L 90 91.746094 Z M 90 89 "/></clipPath><clipPath id="46fc9e6df9"><path d="M 91 88 L 93 88 L 93 91.746094 L 91 91.746094 Z M 91 88 "/></clipPath><clipPath id="891e82add3"><path d="M 93 88 L 95 88 L 95 91.746094 L 93 91.746094 Z M 93 88 "/></clipPath><clipPath id="ea51f065a4"><path d="M 94 88 L 97 88 L 97 91.746094 L 94 91.746094 Z M 94 88 "/></clipPath><clipPath id="b8fac4a7a8"><path d="M 96 90 L 98 90 L 98 91.746094 L 96 91.746094 Z M 96 90 "/></clipPath><clipPath id="1e42a21fbe"><path d="M 98 90 L 100 90 L 100 91.746094 L 98 91.746094 Z M 98 90 "/></clipPath><clipPath id="8bd17c0b1c"><path d="M 99 89 L 102 89 L 102 91.746094 L 99 91.746094 Z M 99 89 "/></clipPath><clipPath id="6743a83305"><path d="M 101 85 L 103 85 L 103 91.746094 L 101 91.746094 Z M 101 85 "/></clipPath><clipPath id="38ea0d5aa4"><path d="M 103 82 L 105 82 L 105 91.746094 L 103 91.746094 Z M 103 82 "/></clipPath><clipPath id="1dde034fd4"><path d="M 104 84 L 106 84 L 106 91.746094 L 104 91.746094 Z M 104 84 "/></clipPath><clipPath id="86b2672a98"><path d="M 106 88 L 108 88 L 108 91.746094 L 106 91.746094 Z M 106 88 "/></clipPath><clipPath id="5f824c07a7"><path d="M 108 89 L 110 89 L 110 91.746094 L 108 91.746094 Z M 108 89 "/></clipPath><clipPath id="4ef19b5510"><path d="M 109 88 L 111 88 L 111 91.746094 L 109 91.746094 Z M 109 88 "/></clipPath><clipPath id="8eb5141900"><path d="M 111 86 L 113 86 L 113 91.746094 L 111 91.746094 Z M 111 86 "/></clipPath><clipPath id="eeee619e95"><path d="M 112 87 L 115 87 L 115 91.746094 L 112 91.746094 Z M 112 87 "/></clipPath><clipPath id="23876ac1d2"><path d="M 114 88 L 116 88 L 116 91.746094 L 114 91.746094 Z M 114 88 "/></clipPath><clipPath id="9278f55618"><path d="M 116 89 L 118 89 L 118 91.746094 L 116 91.746094 Z M 116 89 "/></clipPath><clipPath id="4983829109"><path d="M 117 90 L 119 90 L 119 91.746094 L 117 91.746094 Z M 117 90 "/></clipPath><clipPath id="5b592e728f"><path d="M 119 90 L 121 90 L 121 91.746094 L 119 91.746094 Z M 119 90 "/></clipPath><clipPath id="94ba3ebc4d"><path d="M 121 90 L 123 90 L 123 91.746094 L 121 91.746094 Z M 121 90 "/></clipPath><clipPath id="b6c909f224"><path d="M 122 90 L 124 90 L 124 91.746094 L 122 91.746094 Z M 122 90 "/></clipPath><clipPath id="c5e8a3dbf0"><path d="M 124 90 L 126 90 L 126 91.746094 L 124 91.746094 Z M 124 90 "/></clipPath><clipPath id="46ec7903ea"><path d="M 125 89 L 128 89 L 128 91.746094 L 125 91.746094 Z M 125 89 "/></clipPath><clipPath id="f9ae6b7984"><path d="M 127 84 L 129 84 L 129 91.746094 L 127 91.746094 Z M 127 84 "/></clipPath><clipPath id="f69ee627bc"><path d="M 129 77 L 131 77 L 131 91.746094 L 129 91.746094 Z M 129 77 "/></clipPath><clipPath id="949d3e32e7"><path d="M 130 75.3125 L 133 75.3125 L 133 91.746094 L 130 91.746094 Z M 130 75.3125 "/></clipPath><clipPath id="e5d17ea234"><path d="M 132 79 L 134 79 L 134 91.746094 L 132 91.746094 Z M 132 79 "/></clipPath><clipPath id="af44d2acd0"><path d="M 134 87 L 136 87 L 136 91.746094 L 134 91.746094 Z M 134 87 "/></clipPath><clipPath id="17e07087cd"><path d="M 135 90 L 137 90 L 137 91.746094 L 135 91.746094 Z M 135 90 "/></clipPath><clipPath id="99e6c87f48"><path d="M 137 90 L 139 90 L 139 91.746094 L 137 91.746094 Z M 137 90 "/></clipPath><clipPath id="9816c95a9d"><path d="M 139 91 L 141 91 L 141 91.746094 L 139 91.746094 Z M 139 91 "/></clipPath><clipPath id="4581c64c6c"><path d="M 140 90 L 142 90 L 142 91.746094 L 140 91.746094 Z M 140 90 "/></clipPath><clipPath id="c5ed8b3d4b"><path d="M 142 90 L 144 90 L 144 91.746094 L 142 91.746094 Z M 142 90 "/></clipPath><clipPath id="61c3b2461f"><path d="M 143 90 L 146 90 L 146 91.746094 L 143 91.746094 Z M 143 90 "/></clipPath><clipPath id="94714c1aad"><path d="M 145 90 L 147 90 L 147 91.746094 L 145 91.746094 Z M 145 90 "/></clipPath><clipPath id="205da76055"><path d="M 147 90 L 149 90 L 149 91.746094 L 147 91.746094 Z M 147 90 "/></clipPath><clipPath id="715baaf9ac"><path d="M 148 90 L 151 90 L 151 91.746094 L 148 91.746094 Z M 148 90 "/></clipPath><clipPath id="7cc349f445"><path d="M 150 90 L 152 90 L 152 91.746094 L 150 91.746094 Z M 150 90 "/></clipPath><clipPath id="44dbe59a36"><path d="M 152 91 L 153.300781 91 L 153.300781 91.746094 L 152 91.746094 Z M 152 91 "/></clipPath><clipPath id="2d2b8bdb0d"><path d="M 59.960938 56.367188 L 68.921875 56.367188 L 68.921875 67.570312 L 59.960938 67.570312 Z M 59.960938 56.367188 "/></clipPath><clipPath id="36efe36646"><path d="M 50.945312 56.367188 L 59.910156 56.367188 L 59.910156 67.570312 L 50.945312 67.570312 Z M 50.945312 56.367188 "/></clipPath><clipPath id="9d89b2069b"><path d="M 55.453125 48.710938 L 64.417969 48.710938 L 64.417969 59.914062 L 55.453125 59.914062 Z M 55.453125 48.710938 "/></clipPath><clipPath id="658554a18a"><path d="M 46.703125 48.710938 L 55.664062 48.710938 L 55.664062 59.914062 L 46.703125 59.914062 Z M 46.703125 48.710938 "/></clipPath><clipPath id="8c4d6706e1"><path d="M 64.46875 48.710938 L 73.429688 48.710938 L 73.429688 59.914062 L 64.46875 59.914062 Z M 64.46875 48.710938 "/></clipPath><clipPath id="88431c7bec"><path d="M 59.960938 40.703125 L 68.921875 40.703125 L 68.921875 51.90625 L 59.960938 51.90625 Z M 59.960938 40.703125 "/></clipPath><clipPath id="7a72b65daa"><path d="M 50.945312 40.703125 L 59.910156 40.703125 L 59.910156 51.90625 L 50.945312 51.90625 Z M 50.945312 40.703125 "/></clipPath><clipPath id="e8ba60e95a"><path d="M 59 31.808594 L 61 31.808594 L 61 52 L 59 52 Z M 59 31.808594 "/></clipPath><clipPath id="d3772cd342"><path d="M 59 55 L 61 55 L 61 75.128906 L 59 75.128906 Z M 59 55 "/></clipPath><clipPath id="7677cb9a05"><path d="M 62 52 L 81.53125 52 L 81.53125 54 L 62 54 Z M 62 52 "/></clipPath><clipPath id="bd8c140527"><path d="M 38.207031 52 L 58 52 L 58 54 L 38.207031 54 Z M 38.207031 52 "/></clipPath></defs><g id="0ae5bf9a3d"><g clip-rule="nonzero" clip-path="url(#c499ef112f)"><path style=" stroke:none;fill-rule:nonzero;fill:#ffffff;fill-opacity:1;" d="M 0.332031 0 L 161.667969 0 L 161.667969 121.003906 L 0.332031 121.003906 Z M 0.332031 0 "/><path style=" stroke:none;fill-rule:nonzero;fill:#ffffff;fill-opacity:1;" d="M 0.332031 0 L 161.667969 0 L 161.667969 121.003906 L 0.332031 121.003906 Z M 0.332031 0 "/></g><g clip-rule="nonzero" clip-path="url(#bd8ede3e2b)"><path style=" stroke:none;fill-rule:nonzero;fill:#e3e3e3;fill-opacity:1;" d="M 2.988281 22.6875 L 158.960938 22.6875 L 158.960938 98.3125 L 2.988281 98.3125 Z M 2.988281 22.6875 "/></g><g clip-rule="nonzero" clip-path="url(#3ef5ffbdcf)"><path style="fill:none;stroke-width:2;stroke-linecap:butt;stroke-linejoin:miter;stroke:#000000;stroke-opacity:1;stroke-miterlimit:4;" d="M 0.00162054 -0.0025769 L 208.870475 -0.0025769 L 208.870475 101.23429 L 0.00162054 101.23429 Z M 0.00162054 -0.0025769 " transform="matrix(0.745197,0,0,0.745197,2.994886,22.68942)"/></g><g clip-rule="nonzero" clip-path="url(#8b2faef5d3)"><path style=" stroke:none;fill-rule:nonzero;fill:#000000;fill-opacity:1;" d="M 8.429688 91.066406 L 9.578125 91.066406 L 9.578125 91.738281 L 8.429688 91.738281 Z M 8.429688 91.066406 "/></g><g clip-rule="nonzero" clip-path="url(#1f25e57ca3)"><path style=" stroke:none;fill-rule:nonzero;fill:#000000;fill-opacity:1;" d="M 10.054688 91.144531 L 11.199219 91.144531 L 11.199219 91.726562 L 10.054688 91.726562 Z M 10.054688 91.144531 "/></g><g clip-rule="nonzero" clip-path="url(#bcf5ca0fc3)"><path style=" stroke:none;fill-rule:nonzero;fill:#000000;fill-opacity:1;" d="M 11.699219 91.144531 L 12.84375 91.144531 L 12.84375 91.734375 L 11.699219 91.734375 Z M 11.699219 91.144531 "/></g><g clip-rule="nonzero" clip-path="url(#1d8f23b380)"><path style=" stroke:none;fill-rule:nonzero;fill:#000000;fill-opacity:1;" d="M 13.320312 91.046875 L 14.46875 91.046875 L 14.46875 91.722656 L 13.320312 91.722656 Z M 13.320312 91.046875 "/></g><g clip-rule="nonzero" clip-path="url(#439356aadd)"><path style=" stroke:none;fill-rule:nonzero;fill:#000000;fill-opacity:1;" d="M 14.964844 90.917969 L 16.109375 90.917969 L 16.109375 91.722656 L 14.964844 91.722656 Z M 14.964844 90.917969 "/></g><g clip-rule="nonzero" clip-path="url(#0512342769)"><path style=" stroke:none;fill-rule:nonzero;fill:#000000;fill-opacity:1;" d="M 16.585938 90.765625 L 17.734375 90.765625 L 17.734375 91.734375 L 16.585938 91.734375 Z M 16.585938 90.765625 "/></g><g clip-rule="nonzero" clip-path="url(#72ae621a53)"><path style=" stroke:none;fill-rule:nonzero;fill:#000000;fill-opacity:1;" d="M 18.230469 90.519531 L 19.375 90.519531 L 19.375 91.730469 L 18.230469 91.730469 Z M 18.230469 90.519531 "/></g><g clip-rule="nonzero" clip-path="url(#fe94d23719)"><path style=" stroke:none;fill-rule:nonzero;fill:#000000;fill-opacity:1;" d="M 19.851562 90.277344 L 21 90.277344 L 21 91.734375 L 19.851562 91.734375 Z M 19.851562 90.277344 "/></g><g clip-rule="nonzero" clip-path="url(#888d6023af)"><path style=" stroke:none;fill-rule:nonzero;fill:#000000;fill-opacity:1;" d="M 21.496094 89.957031 L 22.640625 89.957031 L 22.640625 91.734375 L 21.496094 91.734375 Z M 21.496094 89.957031 "/></g><g clip-rule="nonzero" clip-path="url(#eef708f599)"><path style=" stroke:none;fill-rule:nonzero;fill:#000000;fill-opacity:1;" d="M 23.121094 89.636719 L 24.265625 89.636719 L 24.265625 91.734375 L 23.121094 91.734375 Z M 23.121094 89.636719 "/></g><g clip-rule="nonzero" clip-path="url(#f4f6de8b60)"><path style=" stroke:none;fill-rule:nonzero;fill:#000000;fill-opacity:1;" d="M 24.761719 88.035156 L 25.90625 88.035156 L 25.90625 91.734375 L 24.761719 91.734375 Z M 24.761719 88.035156 "/></g><g clip-rule="nonzero" clip-path="url(#d6faf5fc79)"><path style=" stroke:none;fill-rule:nonzero;fill:#000000;fill-opacity:1;" d="M 26.386719 84.300781 L 27.53125 84.300781 L 27.53125 91.722656 L 26.386719 91.722656 Z M 26.386719 84.300781 "/></g><g clip-rule="nonzero" clip-path="url(#3d97d49e07)"><path style=" stroke:none;fill-rule:nonzero;fill:#000000;fill-opacity:1;" d="M 28.027344 80.308594 L 29.175781 80.308594 L 29.175781 91.738281 L 28.027344 91.738281 Z M 28.027344 80.308594 "/></g><g clip-rule="nonzero" clip-path="url(#822dda277c)"><path style=" stroke:none;fill-rule:nonzero;fill:#000000;fill-opacity:1;" d="M 29.652344 78.121094 L 30.796875 78.121094 L 30.796875 91.730469 L 29.652344 91.730469 Z M 29.652344 78.121094 "/></g><g clip-rule="nonzero" clip-path="url(#2a03eb1b30)"><path style=" stroke:none;fill-rule:nonzero;fill:#000000;fill-opacity:1;" d="M 31.292969 79.234375 L 32.441406 79.234375 L 32.441406 91.722656 L 31.292969 91.722656 Z M 31.292969 79.234375 "/></g><g clip-rule="nonzero" clip-path="url(#378d5b8cd6)"><path style=" stroke:none;fill-rule:nonzero;fill:#000000;fill-opacity:1;" d="M 32.917969 85.28125 L 34.0625 85.28125 L 34.0625 91.722656 L 32.917969 91.722656 Z M 32.917969 85.28125 "/></g><g clip-rule="nonzero" clip-path="url(#9bbee32790)"><path style=" stroke:none;fill-rule:nonzero;fill:#000000;fill-opacity:1;" d="M 34.5625 89.257812 L 35.707031 89.257812 L 35.707031 91.734375 L 34.5625 91.734375 Z M 34.5625 89.257812 "/></g><g clip-rule="nonzero" clip-path="url(#f7fee8da5f)"><path style=" stroke:none;fill-rule:nonzero;fill:#000000;fill-opacity:1;" d="M 36.183594 89.957031 L 37.332031 89.957031 L 37.332031 91.730469 L 36.183594 91.730469 Z M 36.183594 89.957031 "/></g><g clip-rule="nonzero" clip-path="url(#eeac62c86c)"><path style=" stroke:none;fill-rule:nonzero;fill:#000000;fill-opacity:1;" d="M 37.828125 90.445312 L 38.972656 90.445312 L 38.972656 91.734375 L 37.828125 91.734375 Z M 37.828125 90.445312 "/></g><g clip-rule="nonzero" clip-path="url(#a77648a028)"><path style=" stroke:none;fill-rule:nonzero;fill:#000000;fill-opacity:1;" d="M 39.449219 90.671875 L 40.597656 90.671875 L 40.597656 91.730469 L 39.449219 91.730469 Z M 39.449219 90.671875 "/></g><g clip-rule="nonzero" clip-path="url(#4068d101cf)"><path style=" stroke:none;fill-rule:nonzero;fill:#000000;fill-opacity:1;" d="M 41.09375 90.613281 L 42.238281 90.613281 L 42.238281 91.726562 L 41.09375 91.726562 Z M 41.09375 90.613281 "/></g><g clip-rule="nonzero" clip-path="url(#7957d699f0)"><path style=" stroke:none;fill-rule:nonzero;fill:#000000;fill-opacity:1;" d="M 42.714844 90.3125 L 43.863281 90.3125 L 43.863281 91.734375 L 42.714844 91.734375 Z M 42.714844 90.3125 "/></g><g clip-rule="nonzero" clip-path="url(#0148a0c07d)"><path style=" stroke:none;fill-rule:nonzero;fill:#000000;fill-opacity:1;" d="M 44.359375 89.824219 L 45.503906 89.824219 L 45.503906 91.734375 L 44.359375 91.734375 Z M 44.359375 89.824219 "/></g><g clip-rule="nonzero" clip-path="url(#c9a7c9a53d)"><path style=" stroke:none;fill-rule:nonzero;fill:#000000;fill-opacity:1;" d="M 45.984375 89.21875 L 47.128906 89.21875 L 47.128906 91.726562 L 45.984375 91.726562 Z M 45.984375 89.21875 "/></g><g clip-rule="nonzero" clip-path="url(#908a95eeaf)"><path style=" stroke:none;fill-rule:nonzero;fill:#000000;fill-opacity:1;" d="M 47.625 88.636719 L 48.769531 88.636719 L 48.769531 91.734375 L 47.625 91.734375 Z M 47.625 88.636719 "/></g><g clip-rule="nonzero" clip-path="url(#63a2e2472a)"><path style=" stroke:none;fill-rule:nonzero;fill:#000000;fill-opacity:1;" d="M 49.25 87.375 L 50.394531 87.375 L 50.394531 91.726562 L 49.25 91.726562 Z M 49.25 87.375 "/></g><g clip-rule="nonzero" clip-path="url(#1c934dbce2)"><path style=" stroke:none;fill-rule:nonzero;fill:#000000;fill-opacity:1;" d="M 50.890625 85.035156 L 52.039062 85.035156 L 52.039062 91.734375 L 50.890625 91.734375 Z M 50.890625 85.035156 "/></g><g clip-rule="nonzero" clip-path="url(#805478e9b0)"><path style=" stroke:none;fill-rule:nonzero;fill:#000000;fill-opacity:1;" d="M 52.515625 82.871094 L 53.660156 82.871094 L 53.660156 91.734375 L 52.515625 91.734375 Z M 52.515625 82.871094 "/></g><g clip-rule="nonzero" clip-path="url(#5b774eff96)"><path style=" stroke:none;fill-rule:nonzero;fill:#000000;fill-opacity:1;" d="M 54.15625 82.078125 L 55.304688 82.078125 L 55.304688 91.734375 L 54.15625 91.734375 Z M 54.15625 82.078125 "/></g><g clip-rule="nonzero" clip-path="url(#86519cb9e8)"><path style=" stroke:none;fill-rule:nonzero;fill:#000000;fill-opacity:1;" d="M 55.78125 82.398438 L 56.925781 82.398438 L 56.925781 91.738281 L 55.78125 91.738281 Z M 55.78125 82.398438 "/></g><g clip-rule="nonzero" clip-path="url(#2baee5f75d)"><path style=" stroke:none;fill-rule:nonzero;fill:#000000;fill-opacity:1;" d="M 57.425781 83.417969 L 58.570312 83.417969 L 58.570312 91.722656 L 57.425781 91.722656 Z M 57.425781 83.417969 "/></g><g clip-rule="nonzero" clip-path="url(#707fb1339e)"><path style=" stroke:none;fill-rule:nonzero;fill:#000000;fill-opacity:1;" d="M 59.046875 84.960938 L 60.195312 84.960938 L 60.195312 91.726562 L 59.046875 91.726562 Z M 59.046875 84.960938 "/></g><g clip-rule="nonzero" clip-path="url(#611c39a8f2)"><path style=" stroke:none;fill-rule:nonzero;fill:#000000;fill-opacity:1;" d="M 60.691406 86.5625 L 61.835938 86.5625 L 61.835938 91.738281 L 60.691406 91.738281 Z M 60.691406 86.5625 "/></g><g clip-rule="nonzero" clip-path="url(#5a6a9183c8)"><path style=" stroke:none;fill-rule:nonzero;fill:#000000;fill-opacity:1;" d="M 62.3125 87.75 L 63.460938 87.75 L 63.460938 91.734375 L 62.3125 91.734375 Z M 62.3125 87.75 "/></g><g clip-rule="nonzero" clip-path="url(#c79f84f886)"><path style=" stroke:none;fill-rule:nonzero;fill:#000000;fill-opacity:1;" d="M 63.957031 88.484375 L 65.101562 88.484375 L 65.101562 91.734375 L 63.957031 91.734375 Z M 63.957031 88.484375 "/></g><g clip-rule="nonzero" clip-path="url(#156c7c6932)"><path style=" stroke:none;fill-rule:nonzero;fill:#000000;fill-opacity:1;" d="M 65.578125 89.203125 L 66.726562 89.203125 L 66.726562 91.734375 L 65.578125 91.734375 Z M 65.578125 89.203125 "/></g><g clip-rule="nonzero" clip-path="url(#50cdf4b012)"><path style=" stroke:none;fill-rule:nonzero;fill:#000000;fill-opacity:1;" d="M 67.222656 89.898438 L 68.367188 89.898438 L 68.367188 91.726562 L 67.222656 91.726562 Z M 67.222656 89.898438 "/></g><g clip-rule="nonzero" clip-path="url(#a2d5cd1c1f)"><path style=" stroke:none;fill-rule:nonzero;fill:#000000;fill-opacity:1;" d="M 68.847656 90.371094 L 69.992188 90.371094 L 69.992188 91.726562 L 68.847656 91.726562 Z M 68.847656 90.371094 "/></g><g clip-rule="nonzero" clip-path="url(#9112258076)"><path style=" stroke:none;fill-rule:nonzero;fill:#000000;fill-opacity:1;" d="M 70.488281 90.390625 L 71.632812 90.390625 L 71.632812 91.726562 L 70.488281 91.726562 Z M 70.488281 90.390625 "/></g><g clip-rule="nonzero" clip-path="url(#7c4a2bd5fa)"><path style=" stroke:none;fill-rule:nonzero;fill:#000000;fill-opacity:1;" d="M 72.113281 89.898438 L 73.257812 89.898438 L 73.257812 91.738281 L 72.113281 91.738281 Z M 72.113281 89.898438 "/></g><g clip-rule="nonzero" clip-path="url(#395732f7b5)"><path style=" stroke:none;fill-rule:nonzero;fill:#000000;fill-opacity:1;" d="M 73.753906 88.84375 L 74.902344 88.84375 L 74.902344 91.734375 L 73.753906 91.734375 Z M 73.753906 88.84375 "/></g><g clip-rule="nonzero" clip-path="url(#acc5284176)"><path style=" stroke:none;fill-rule:nonzero;fill:#000000;fill-opacity:1;" d="M 75.378906 85.695312 L 76.523438 85.695312 L 76.523438 91.734375 L 75.378906 91.734375 Z M 75.378906 85.695312 "/></g><g clip-rule="nonzero" clip-path="url(#487d2cb0aa)"><path style=" stroke:none;fill-rule:nonzero;fill:#000000;fill-opacity:1;" d="M 77.019531 81.023438 L 78.167969 81.023438 L 78.167969 91.722656 L 77.019531 91.722656 Z M 77.019531 81.023438 "/></g><g clip-rule="nonzero" clip-path="url(#0c127fd2bc)"><path style=" stroke:none;fill-rule:nonzero;fill:#000000;fill-opacity:1;" d="M 78.644531 77.6875 L 79.789062 77.6875 L 79.789062 91.730469 L 78.644531 91.730469 Z M 78.644531 77.6875 "/></g><g clip-rule="nonzero" clip-path="url(#f893b6e444)"><path style=" stroke:none;fill-rule:nonzero;fill:#000000;fill-opacity:1;" d="M 80.269531 77.480469 L 81.414062 77.480469 L 81.414062 91.722656 L 80.269531 91.722656 Z M 80.269531 77.480469 "/></g><g clip-rule="nonzero" clip-path="url(#4997e697ee)"><path style=" stroke:none;fill-rule:nonzero;fill:#000000;fill-opacity:1;" d="M 81.910156 83.152344 L 83.058594 83.152344 L 83.058594 91.730469 L 81.910156 91.730469 Z M 81.910156 83.152344 "/></g><g clip-rule="nonzero" clip-path="url(#1573bcacab)"><path style=" stroke:none;fill-rule:nonzero;fill:#000000;fill-opacity:1;" d="M 83.535156 89.484375 L 84.679688 89.484375 L 84.679688 91.730469 L 83.535156 91.730469 Z M 83.535156 89.484375 "/></g><g clip-rule="nonzero" clip-path="url(#798c626f83)"><path style=" stroke:none;fill-rule:nonzero;fill:#000000;fill-opacity:1;" d="M 85.175781 90.613281 L 86.324219 90.613281 L 86.324219 91.738281 L 85.175781 91.738281 Z M 85.175781 90.613281 "/></g><g clip-rule="nonzero" clip-path="url(#3abfe4e18d)"><path style=" stroke:none;fill-rule:nonzero;fill:#000000;fill-opacity:1;" d="M 86.800781 90.632812 L 87.945312 90.632812 L 87.945312 91.734375 L 86.800781 91.734375 Z M 86.800781 90.632812 "/></g><g clip-rule="nonzero" clip-path="url(#63556086d7)"><path style=" stroke:none;fill-rule:nonzero;fill:#000000;fill-opacity:1;" d="M 88.441406 90.125 L 89.589844 90.125 L 89.589844 91.726562 L 88.441406 91.726562 Z M 88.441406 90.125 "/></g><g clip-rule="nonzero" clip-path="url(#739241b436)"><path style=" stroke:none;fill-rule:nonzero;fill:#000000;fill-opacity:1;" d="M 90.066406 89.371094 L 91.210938 89.371094 L 91.210938 91.738281 L 90.066406 91.738281 Z M 90.066406 89.371094 "/></g><g clip-rule="nonzero" clip-path="url(#46fc9e6df9)"><path style=" stroke:none;fill-rule:nonzero;fill:#000000;fill-opacity:1;" d="M 91.710938 88.710938 L 92.855469 88.710938 L 92.855469 91.726562 L 91.710938 91.726562 Z M 91.710938 88.710938 "/></g><g clip-rule="nonzero" clip-path="url(#891e82add3)"><path style=" stroke:none;fill-rule:nonzero;fill:#000000;fill-opacity:1;" d="M 93.332031 88.449219 L 94.480469 88.449219 L 94.480469 91.730469 L 93.332031 91.730469 Z M 93.332031 88.449219 "/></g><g clip-rule="nonzero" clip-path="url(#ea51f065a4)"><path style=" stroke:none;fill-rule:nonzero;fill:#000000;fill-opacity:1;" d="M 94.976562 88.9375 L 96.121094 88.9375 L 96.121094 91.734375 L 94.976562 91.734375 Z M 94.976562 88.9375 "/></g><g clip-rule="nonzero" clip-path="url(#b8fac4a7a8)"><path style=" stroke:none;fill-rule:nonzero;fill:#000000;fill-opacity:1;" d="M 96.597656 90.40625 L 97.746094 90.40625 L 97.746094 91.734375 L 96.597656 91.734375 Z M 96.597656 90.40625 "/></g><g clip-rule="nonzero" clip-path="url(#1e42a21fbe)"><path style=" stroke:none;fill-rule:nonzero;fill:#000000;fill-opacity:1;" d="M 98.242188 90.820312 L 99.386719 90.820312 L 99.386719 91.730469 L 98.242188 91.730469 Z M 98.242188 90.820312 "/></g><g clip-rule="nonzero" clip-path="url(#8bd17c0b1c)"><path style=" stroke:none;fill-rule:nonzero;fill:#000000;fill-opacity:1;" d="M 99.863281 89.011719 L 101.011719 89.011719 L 101.011719 91.730469 L 99.863281 91.730469 Z M 99.863281 89.011719 "/></g><g clip-rule="nonzero" clip-path="url(#6743a83305)"><path style=" stroke:none;fill-rule:nonzero;fill:#000000;fill-opacity:1;" d="M 101.507812 85.207031 L 102.652344 85.207031 L 102.652344 91.722656 L 101.507812 91.722656 Z M 101.507812 85.207031 "/></g><g clip-rule="nonzero" clip-path="url(#38ea0d5aa4)"><path style=" stroke:none;fill-rule:nonzero;fill:#000000;fill-opacity:1;" d="M 103.132812 82.871094 L 104.277344 82.871094 L 104.277344 91.738281 L 103.132812 91.738281 Z M 103.132812 82.871094 "/></g><g clip-rule="nonzero" clip-path="url(#1dde034fd4)"><path style=" stroke:none;fill-rule:nonzero;fill:#000000;fill-opacity:1;" d="M 104.773438 84.113281 L 105.921875 84.113281 L 105.921875 91.730469 L 104.773438 91.730469 Z M 104.773438 84.113281 "/></g><g clip-rule="nonzero" clip-path="url(#86b2672a98)"><path style=" stroke:none;fill-rule:nonzero;fill:#000000;fill-opacity:1;" d="M 106.398438 88.242188 L 107.542969 88.242188 L 107.542969 91.722656 L 106.398438 91.722656 Z M 106.398438 88.242188 "/></g><g clip-rule="nonzero" clip-path="url(#5f824c07a7)"><path style=" stroke:none;fill-rule:nonzero;fill:#000000;fill-opacity:1;" d="M 108.039062 89.75 L 109.1875 89.75 L 109.1875 91.726562 L 108.039062 91.726562 Z M 108.039062 89.75 "/></g><g clip-rule="nonzero" clip-path="url(#4ef19b5510)"><path style=" stroke:none;fill-rule:nonzero;fill:#000000;fill-opacity:1;" d="M 109.664062 88.429688 L 110.808594 88.429688 L 110.808594 91.730469 L 109.664062 91.730469 Z M 109.664062 88.429688 "/></g><g clip-rule="nonzero" clip-path="url(#8eb5141900)"><path style=" stroke:none;fill-rule:nonzero;fill:#000000;fill-opacity:1;" d="M 111.304688 86.808594 L 112.453125 86.808594 L 112.453125 91.722656 L 111.304688 91.722656 Z M 111.304688 86.808594 "/></g><g clip-rule="nonzero" clip-path="url(#eeee619e95)"><path style=" stroke:none;fill-rule:nonzero;fill:#000000;fill-opacity:1;" d="M 112.929688 87.089844 L 114.074219 87.089844 L 114.074219 91.738281 L 112.929688 91.738281 Z M 112.929688 87.089844 "/></g><g clip-rule="nonzero" clip-path="url(#23876ac1d2)"><path style=" stroke:none;fill-rule:nonzero;fill:#000000;fill-opacity:1;" d="M 114.574219 88.5625 L 115.71875 88.5625 L 115.71875 91.734375 L 114.574219 91.734375 Z M 114.574219 88.5625 "/></g><g clip-rule="nonzero" clip-path="url(#9278f55618)"><path style=" stroke:none;fill-rule:nonzero;fill:#000000;fill-opacity:1;" d="M 116.195312 89.730469 L 117.34375 89.730469 L 117.34375 91.734375 L 116.195312 91.734375 Z M 116.195312 89.730469 "/></g><g clip-rule="nonzero" clip-path="url(#4983829109)"><path style=" stroke:none;fill-rule:nonzero;fill:#000000;fill-opacity:1;" d="M 117.839844 90.085938 L 118.984375 90.085938 L 118.984375 91.730469 L 117.839844 91.730469 Z M 117.839844 90.085938 "/></g><g clip-rule="nonzero" clip-path="url(#5b592e728f)"><path style=" stroke:none;fill-rule:nonzero;fill:#000000;fill-opacity:1;" d="M 119.460938 90.464844 L 120.609375 90.464844 L 120.609375 91.722656 L 119.460938 91.722656 Z M 119.460938 90.464844 "/></g><g clip-rule="nonzero" clip-path="url(#94ba3ebc4d)"><path style=" stroke:none;fill-rule:nonzero;fill:#000000;fill-opacity:1;" d="M 121.105469 90.746094 L 122.25 90.746094 L 122.25 91.734375 L 121.105469 91.734375 Z M 121.105469 90.746094 "/></g><g clip-rule="nonzero" clip-path="url(#b6c909f224)"><path style=" stroke:none;fill-rule:nonzero;fill:#000000;fill-opacity:1;" d="M 122.726562 90.652344 L 123.875 90.652344 L 123.875 91.722656 L 122.726562 91.722656 Z M 122.726562 90.652344 "/></g><g clip-rule="nonzero" clip-path="url(#c5e8a3dbf0)"><path style=" stroke:none;fill-rule:nonzero;fill:#000000;fill-opacity:1;" d="M 124.371094 90.105469 L 125.515625 90.105469 L 125.515625 91.734375 L 124.371094 91.734375 Z M 124.371094 90.105469 "/></g><g clip-rule="nonzero" clip-path="url(#46ec7903ea)"><path style=" stroke:none;fill-rule:nonzero;fill:#000000;fill-opacity:1;" d="M 125.996094 89.070312 L 127.140625 89.070312 L 127.140625 91.722656 L 125.996094 91.722656 Z M 125.996094 89.070312 "/></g><g clip-rule="nonzero" clip-path="url(#f9ae6b7984)"><path style=" stroke:none;fill-rule:nonzero;fill:#000000;fill-opacity:1;" d="M 127.636719 84.265625 L 128.78125 84.265625 L 128.78125 91.730469 L 127.636719 91.730469 Z M 127.636719 84.265625 "/></g><g clip-rule="nonzero" clip-path="url(#f69ee627bc)"><path style=" stroke:none;fill-rule:nonzero;fill:#000000;fill-opacity:1;" d="M 129.261719 77.3125 L 130.40625 77.3125 L 130.40625 91.730469 L 129.261719 91.730469 Z M 129.261719 77.3125 "/></g><g clip-rule="nonzero" clip-path="url(#949d3e32e7)"><path style=" stroke:none;fill-rule:nonzero;fill:#000000;fill-opacity:1;" d="M 130.902344 75.3125 L 132.050781 75.3125 L 132.050781 91.730469 L 130.902344 91.730469 Z M 130.902344 75.3125 "/></g><g clip-rule="nonzero" clip-path="url(#e5d17ea234)"><path style=" stroke:none;fill-rule:nonzero;fill:#000000;fill-opacity:1;" d="M 132.527344 79.722656 L 133.671875 79.722656 L 133.671875 91.726562 L 132.527344 91.726562 Z M 132.527344 79.722656 "/></g><g clip-rule="nonzero" clip-path="url(#af44d2acd0)"><path style=" stroke:none;fill-rule:nonzero;fill:#000000;fill-opacity:1;" d="M 134.167969 87.222656 L 135.316406 87.222656 L 135.316406 91.722656 L 134.167969 91.722656 Z M 134.167969 87.222656 "/></g><g clip-rule="nonzero" clip-path="url(#17e07087cd)"><path style=" stroke:none;fill-rule:nonzero;fill:#000000;fill-opacity:1;" d="M 135.792969 90.519531 L 136.9375 90.519531 L 136.9375 91.726562 L 135.792969 91.726562 Z M 135.792969 90.519531 "/></g><g clip-rule="nonzero" clip-path="url(#99e6c87f48)"><path style=" stroke:none;fill-rule:nonzero;fill:#000000;fill-opacity:1;" d="M 137.4375 90.898438 L 138.582031 90.898438 L 138.582031 91.738281 L 137.4375 91.738281 Z M 137.4375 90.898438 "/></g><g clip-rule="nonzero" clip-path="url(#9816c95a9d)"><path style=" stroke:none;fill-rule:nonzero;fill:#000000;fill-opacity:1;" d="M 139.058594 91.011719 L 140.207031 91.011719 L 140.207031 91.726562 L 139.058594 91.726562 Z M 139.058594 91.011719 "/></g><g clip-rule="nonzero" clip-path="url(#4581c64c6c)"><path style=" stroke:none;fill-rule:nonzero;fill:#000000;fill-opacity:1;" d="M 140.703125 90.917969 L 141.847656 90.917969 L 141.847656 91.738281 L 140.703125 91.738281 Z M 140.703125 90.917969 "/></g><g clip-rule="nonzero" clip-path="url(#c5ed8b3d4b)"><path style=" stroke:none;fill-rule:nonzero;fill:#000000;fill-opacity:1;" d="M 142.324219 90.691406 L 143.472656 90.691406 L 143.472656 91.734375 L 142.324219 91.734375 Z M 142.324219 90.691406 "/></g><g clip-rule="nonzero" clip-path="url(#61c3b2461f)"><path style=" stroke:none;fill-rule:nonzero;fill:#000000;fill-opacity:1;" d="M 143.96875 90.464844 L 145.113281 90.464844 L 145.113281 91.730469 L 143.96875 91.730469 Z M 143.96875 90.464844 "/></g><g clip-rule="nonzero" clip-path="url(#94714c1aad)"><path style=" stroke:none;fill-rule:nonzero;fill:#000000;fill-opacity:1;" d="M 145.589844 90.332031 L 146.738281 90.332031 L 146.738281 91.726562 L 145.589844 91.726562 Z M 145.589844 90.332031 "/></g><g clip-rule="nonzero" clip-path="url(#205da76055)"><path style=" stroke:none;fill-rule:nonzero;fill:#000000;fill-opacity:1;" d="M 147.234375 90.390625 L 148.378906 90.390625 L 148.378906 91.738281 L 147.234375 91.738281 Z M 147.234375 90.390625 "/></g><g clip-rule="nonzero" clip-path="url(#715baaf9ac)"><path style=" stroke:none;fill-rule:nonzero;fill:#000000;fill-opacity:1;" d="M 148.859375 90.652344 L 150.003906 90.652344 L 150.003906 91.734375 L 148.859375 91.734375 Z M 148.859375 90.652344 "/></g><g clip-rule="nonzero" clip-path="url(#7cc349f445)"><path style=" stroke:none;fill-rule:nonzero;fill:#000000;fill-opacity:1;" d="M 150.480469 90.992188 L 151.628906 90.992188 L 151.628906 91.738281 L 150.480469 91.738281 Z M 150.480469 90.992188 "/></g><g clip-rule="nonzero" clip-path="url(#44dbe59a36)"><path style=" stroke:none;fill-rule:nonzero;fill:#000000;fill-opacity:1;" d="M 152.125 91.066406 L 153.269531 91.066406 L 153.269531 91.722656 L 152.125 91.722656 Z M 152.125 91.066406 "/></g><g clip-rule="nonzero" clip-path="url(#2d2b8bdb0d)"><path style=" stroke:none;fill-rule:evenodd;fill:#a6a6a6;fill-opacity:1;" d="M 73.242188 72.238281 L 75.300781 73.425781 L 77.363281 74.617188 L 77.363281 79.375 L 75.300781 80.5625 L 73.242188 81.753906 L 71.179688 80.5625 L 69.121094 79.375 L 69.121094 74.617188 L 71.179688 73.425781 Z M 64.082031 56.371094 L 66.140625 57.558594 L 68.203125 58.75 L 68.203125 63.507812 L 66.140625 64.699219 L 64.082031 65.886719 L 62.019531 64.699219 L 59.960938 63.507812 L 59.960938 58.75 L 62.019531 57.558594 Z M 73.242188 56.371094 L 75.300781 57.558594 L 77.363281 58.75 L 77.363281 63.507812 L 75.300781 64.699219 L 73.242188 65.886719 L 71.179688 64.699219 L 69.121094 63.507812 L 69.121094 58.75 L 71.179688 57.558594 Z M 68.660156 64.304688 L 70.722656 65.492188 L 72.78125 66.683594 L 72.78125 71.441406 L 70.722656 72.628906 L 68.660156 73.820312 L 66.601562 72.628906 L 64.539062 71.441406 L 64.539062 66.683594 L 66.601562 65.492188 Z M 68.660156 64.304688 "/></g><g clip-rule="nonzero" clip-path="url(#36efe36646)"><path style=" stroke:none;fill-rule:evenodd;fill:#a6a6a6;fill-opacity:1;" d="M 64.226562 72.238281 L 66.289062 73.425781 L 68.347656 74.617188 L 68.347656 79.375 L 66.289062 80.5625 L 64.226562 81.753906 L 62.164062 80.5625 L 60.105469 79.375 L 60.105469 74.617188 L 62.164062 73.425781 Z M 55.066406 56.371094 L 57.125 57.558594 L 59.1875 58.75 L 59.1875 63.507812 L 57.125 64.699219 L 55.066406 65.886719 L 53.007812 64.699219 L 50.945312 63.507812 L 50.945312 58.75 L 53.007812 57.558594 Z M 64.226562 56.371094 L 66.289062 57.558594 L 68.347656 58.75 L 68.347656 63.507812 L 66.289062 64.699219 L 64.226562 65.886719 L 62.164062 64.699219 L 60.105469 63.507812 L 60.105469 58.75 L 62.164062 57.558594 Z M 59.648438 64.304688 L 61.707031 65.492188 L 63.765625 66.683594 L 63.765625 71.441406 L 61.707031 72.628906 L 59.648438 73.820312 L 57.585938 72.628906 L 55.523438 71.441406 L 55.523438 66.683594 L 57.585938 65.492188 Z M 59.648438 64.304688 "/></g><g clip-rule="nonzero" clip-path="url(#9d89b2069b)"><path style=" stroke:none;fill-rule:evenodd;fill:#a6a6a6;fill-opacity:1;" d="M 68.734375 64.582031 L 70.792969 65.769531 L 72.855469 66.960938 L 72.855469 71.71875 L 70.792969 72.90625 L 68.734375 74.097656 L 66.671875 72.90625 L 64.613281 71.71875 L 64.613281 66.960938 L 66.671875 65.769531 Z M 59.574219 48.714844 L 61.632812 49.902344 L 63.695312 51.09375 L 63.695312 55.851562 L 61.632812 57.042969 L 59.574219 58.230469 L 57.511719 57.042969 L 55.453125 55.851562 L 55.453125 51.09375 L 57.511719 49.902344 Z M 68.734375 48.714844 L 70.792969 49.902344 L 72.855469 51.09375 L 72.855469 55.851562 L 70.792969 57.042969 L 68.734375 58.230469 L 66.671875 57.042969 L 64.613281 55.851562 L 64.613281 51.09375 L 66.671875 49.902344 Z M 64.152344 56.648438 L 66.214844 57.835938 L 68.273438 59.027344 L 68.273438 63.785156 L 66.214844 64.972656 L 64.152344 66.164062 L 62.09375 64.972656 L 60.03125 63.785156 L 60.03125 59.027344 L 62.09375 57.835938 Z M 64.152344 56.648438 "/></g><g clip-rule="nonzero" clip-path="url(#658554a18a)"><path style=" stroke:none;fill-rule:evenodd;fill:#a6a6a6;fill-opacity:1;" d="M 59.984375 64.582031 L 62.042969 65.769531 L 64.105469 66.960938 L 64.105469 71.71875 L 62.042969 72.90625 L 59.984375 74.097656 L 57.921875 72.90625 L 55.863281 71.71875 L 55.863281 66.960938 L 57.921875 65.769531 Z M 50.824219 48.714844 L 52.882812 49.902344 L 54.945312 51.09375 L 54.945312 55.851562 L 52.882812 57.042969 L 50.824219 58.230469 L 48.761719 57.042969 L 46.703125 55.851562 L 46.703125 51.09375 L 48.761719 49.902344 Z M 59.984375 48.714844 L 62.042969 49.902344 L 64.105469 51.09375 L 64.105469 55.851562 L 62.042969 57.042969 L 59.984375 58.230469 L 57.921875 57.042969 L 55.863281 55.851562 L 55.863281 51.09375 L 57.921875 49.902344 Z M 55.402344 56.648438 L 57.464844 57.835938 L 59.523438 59.027344 L 59.523438 63.785156 L 57.464844 64.972656 L 55.402344 66.164062 L 53.34375 64.972656 L 51.28125 63.785156 L 51.28125 59.027344 L 53.34375 57.835938 Z M 55.402344 56.648438 "/></g><g clip-rule="nonzero" clip-path="url(#8c4d6706e1)"><path style=" stroke:none;fill-rule:evenodd;fill:#a6a6a6;fill-opacity:1;" d="M 77.75 64.582031 L 79.808594 65.769531 L 81.867188 66.960938 L 81.867188 71.71875 L 79.808594 72.90625 L 77.75 74.097656 L 75.6875 72.90625 L 73.628906 71.71875 L 73.628906 66.960938 L 75.6875 65.769531 Z M 68.585938 48.714844 L 70.648438 49.902344 L 72.710938 51.09375 L 72.710938 55.851562 L 70.648438 57.042969 L 68.585938 58.230469 L 66.527344 57.042969 L 64.46875 55.851562 L 64.46875 51.09375 L 66.527344 49.902344 Z M 77.75 48.714844 L 79.808594 49.902344 L 81.867188 51.09375 L 81.867188 55.851562 L 79.808594 57.042969 L 77.75 58.230469 L 75.6875 57.042969 L 73.628906 55.851562 L 73.628906 51.09375 L 75.6875 49.902344 Z M 73.167969 56.648438 L 75.226562 57.835938 L 77.289062 59.027344 L 77.289062 63.785156 L 75.226562 64.972656 L 73.167969 66.164062 L 71.109375 64.972656 L 69.046875 63.785156 L 69.046875 59.027344 L 71.109375 57.835938 Z M 73.167969 56.648438 "/></g><g clip-rule="nonzero" clip-path="url(#88431c7bec)"><path style=" stroke:none;fill-rule:evenodd;fill:#a6a6a6;fill-opacity:1;" d="M 73.242188 56.574219 L 75.300781 57.765625 L 77.363281 58.953125 L 77.363281 63.710938 L 75.300781 64.898438 L 73.242188 66.089844 L 71.179688 64.898438 L 69.121094 63.710938 L 69.121094 58.953125 L 71.179688 57.765625 Z M 64.082031 40.707031 L 66.140625 41.898438 L 68.203125 43.085938 L 68.203125 47.84375 L 66.140625 49.035156 L 64.082031 50.222656 L 62.019531 49.035156 L 59.960938 47.84375 L 59.960938 43.085938 L 62.019531 41.898438 Z M 73.242188 40.707031 L 75.300781 41.898438 L 77.363281 43.085938 L 77.363281 47.84375 L 75.300781 49.035156 L 73.242188 50.222656 L 71.179688 49.035156 L 69.121094 47.84375 L 69.121094 43.085938 L 71.179688 41.898438 Z M 68.660156 48.640625 L 70.722656 49.832031 L 72.78125 51.019531 L 72.78125 55.777344 L 70.722656 56.964844 L 68.660156 58.15625 L 66.601562 56.964844 L 64.539062 55.777344 L 64.539062 51.019531 L 66.601562 49.832031 Z M 68.660156 48.640625 "/></g><g clip-rule="nonzero" clip-path="url(#7a72b65daa)"><path style=" stroke:none;fill-rule:evenodd;fill:#a6a6a6;fill-opacity:1;" d="M 64.226562 56.574219 L 66.289062 57.765625 L 68.347656 58.953125 L 68.347656 63.710938 L 66.289062 64.898438 L 64.226562 66.089844 L 62.164062 64.898438 L 60.105469 63.710938 L 60.105469 58.953125 L 62.164062 57.765625 Z M 55.066406 40.707031 L 57.125 41.898438 L 59.1875 43.085938 L 59.1875 47.84375 L 57.125 49.035156 L 55.066406 50.222656 L 53.007812 49.035156 L 50.945312 47.84375 L 50.945312 43.085938 L 53.007812 41.898438 Z M 64.226562 40.707031 L 66.289062 41.898438 L 68.347656 43.085938 L 68.347656 47.84375 L 66.289062 49.035156 L 64.226562 50.222656 L 62.164062 49.035156 L 60.105469 47.84375 L 60.105469 43.085938 L 62.164062 41.898438 Z M 59.648438 48.640625 L 61.707031 49.832031 L 63.765625 51.019531 L 63.765625 55.777344 L 61.707031 56.964844 L 59.648438 58.15625 L 57.585938 56.964844 L 55.523438 55.777344 L 55.523438 51.019531 L 57.585938 49.832031 Z M 59.648438 48.640625 "/></g><g style="fill:#000000;fill-opacity:1;"><g transform="translate(5.153379, 73.154592)"><path style="stroke:none" d="M 19.9375 0.5 C 19.132812 0.5 18.003906 0.414062 16.546875 0.25 C 15.097656 0.0820312 13.539062 -0.285156 11.875 -0.859375 C 10.207031 -1.441406 8.613281 -2.34375 7.09375 -3.5625 C 5.664062 -4.757812 4.457031 -6.082031 3.46875 -7.53125 L 9.515625 -11.65625 C 9.847656 -11.1875 10.1875 -10.753906 10.53125 -10.359375 C 10.882812 -9.960938 11.273438 -9.597656 11.703125 -9.265625 C 12.523438 -8.578125 13.441406 -8.066406 14.453125 -7.734375 C 15.460938 -7.398438 16.421875 -7.164062 17.328125 -7.03125 C 18.234375 -6.90625 18.984375 -6.84375 19.578125 -6.84375 C 20.171875 -6.84375 20.46875 -6.84375 20.46875 -6.84375 L 20.71875 -6.84375 C 22.769531 -6.84375 24.359375 -7.285156 25.484375 -8.171875 C 26.609375 -9.066406 27.203125 -10.046875 27.265625 -11.109375 C 27.328125 -12.265625 26.722656 -13.421875 25.453125 -14.578125 C 24.179688 -15.734375 22.09375 -16.507812 19.1875 -16.90625 C 14.820312 -17.363281 11.351562 -18.785156 8.78125 -21.171875 C 7.488281 -22.359375 6.519531 -23.703125 5.875 -25.203125 C 5.226562 -26.710938 4.972656 -28.257812 5.109375 -29.84375 C 5.273438 -31.664062 5.953125 -33.394531 7.140625 -35.03125 C 8.328125 -36.664062 10.085938 -37.96875 12.421875 -38.9375 C 14.753906 -39.914062 17.671875 -40.304688 21.171875 -40.109375 C 22.753906 -40.109375 24.332031 -39.910156 25.90625 -39.515625 C 27.476562 -39.117188 28.941406 -38.601562 30.296875 -37.96875 C 31.648438 -37.34375 32.789062 -36.6875 33.71875 -36 L 29.453125 -30.046875 C 28.859375 -30.503906 28.085938 -30.941406 27.140625 -31.359375 C 26.203125 -31.773438 25.203125 -32.125 24.140625 -32.40625 C 23.085938 -32.6875 22.066406 -32.828125 21.078125 -32.828125 L 20.921875 -32.828125 C 18.210938 -32.953125 16.128906 -32.632812 14.671875 -31.875 C 13.222656 -31.113281 12.460938 -30.238281 12.390625 -29.25 C 12.328125 -28.320312 12.664062 -27.503906 13.40625 -26.796875 C 14.15625 -26.085938 15.125 -25.507812 16.3125 -25.0625 C 17.5 -24.613281 18.722656 -24.304688 19.984375 -24.140625 L 20.078125 -24.140625 C 23.578125 -23.710938 26.414062 -22.785156 28.59375 -21.359375 C 30.78125 -19.941406 32.351562 -18.273438 33.3125 -16.359375 C 34.269531 -14.441406 34.6875 -12.523438 34.5625 -10.609375 C 34.457031 -8.796875 33.847656 -7.035156 32.734375 -5.328125 C 31.628906 -3.628906 30.078125 -2.238281 28.078125 -1.15625 C 26.085938 -0.0820312 23.671875 0.46875 20.828125 0.5 Z M 19.9375 0.5 "/></g></g><g style="fill:#000000;fill-opacity:1;"><g transform="translate(43.174639, 73.154592)"><path style="stroke:none" d="M 16.453125 -39.65625 C 19.003906 -39.65625 21.359375 -39.144531 23.515625 -38.125 C 25.679688 -37.101562 27.570312 -35.679688 29.1875 -33.859375 C 30.8125 -32.046875 32.078125 -29.941406 32.984375 -27.546875 C 33.898438 -25.148438 34.359375 -22.578125 34.359375 -19.828125 C 34.359375 -17.085938 33.921875 -14.519531 33.046875 -12.125 C 32.171875 -9.726562 30.929688 -7.617188 29.328125 -5.796875 C 27.722656 -3.984375 25.828125 -2.5625 23.640625 -1.53125 C 21.460938 -0.507812 19.066406 0 16.453125 0 L 3.46875 0 L 3.46875 -39.65625 Z M 16.453125 -32.28125 L 10.859375 -32.28125 L 10.859375 -7.390625 L 16.453125 -7.390625 C 18.304688 -7.390625 19.828125 -7.75 21.015625 -8.46875 C 22.210938 -9.195312 23.140625 -9.941406 23.796875 -10.703125 C 24.859375 -11.859375 25.648438 -13.222656 26.171875 -14.796875 C 26.703125 -16.367188 26.96875 -18.046875 26.96875 -19.828125 C 26.96875 -22.171875 26.503906 -24.273438 25.578125 -26.140625 C 24.648438 -28.015625 23.394531 -29.503906 21.8125 -30.609375 C 20.226562 -31.722656 18.441406 -32.28125 16.453125 -32.28125 Z M 16.453125 -32.28125 "/></g></g><g style="fill:#000000;fill-opacity:1;"><g transform="translate(80.997613, 73.154592)"><path style="stroke:none" d="M 19.9375 0.5 C 19.132812 0.5 18.003906 0.414062 16.546875 0.25 C 15.097656 0.0820312 13.539062 -0.285156 11.875 -0.859375 C 10.207031 -1.441406 8.613281 -2.34375 7.09375 -3.5625 C 5.664062 -4.757812 4.457031 -6.082031 3.46875 -7.53125 L 9.515625 -11.65625 C 9.847656 -11.1875 10.1875 -10.753906 10.53125 -10.359375 C 10.882812 -9.960938 11.273438 -9.597656 11.703125 -9.265625 C 12.523438 -8.578125 13.441406 -8.066406 14.453125 -7.734375 C 15.460938 -7.398438 16.421875 -7.164062 17.328125 -7.03125 C 18.234375 -6.90625 18.984375 -6.84375 19.578125 -6.84375 C 20.171875 -6.84375 20.46875 -6.84375 20.46875 -6.84375 L 20.71875 -6.84375 C 22.769531 -6.84375 24.359375 -7.285156 25.484375 -8.171875 C 26.609375 -9.066406 27.203125 -10.046875 27.265625 -11.109375 C 27.328125 -12.265625 26.722656 -13.421875 25.453125 -14.578125 C 24.179688 -15.734375 22.09375 -16.507812 19.1875 -16.90625 C 14.820312 -17.363281 11.351562 -18.785156 8.78125 -21.171875 C 7.488281 -22.359375 6.519531 -23.703125 5.875 -25.203125 C 5.226562 -26.710938 4.972656 -28.257812 5.109375 -29.84375 C 5.273438 -31.664062 5.953125 -33.394531 7.140625 -35.03125 C 8.328125 -36.664062 10.085938 -37.96875 12.421875 -38.9375 C 14.753906 -39.914062 17.671875 -40.304688 21.171875 -40.109375 C 22.753906 -40.109375 24.332031 -39.910156 25.90625 -39.515625 C 27.476562 -39.117188 28.941406 -38.601562 30.296875 -37.96875 C 31.648438 -37.34375 32.789062 -36.6875 33.71875 -36 L 29.453125 -30.046875 C 28.859375 -30.503906 28.085938 -30.941406 27.140625 -31.359375 C 26.203125 -31.773438 25.203125 -32.125 24.140625 -32.40625 C 23.085938 -32.6875 22.066406 -32.828125 21.078125 -32.828125 L 20.921875 -32.828125 C 18.210938 -32.953125 16.128906 -32.632812 14.671875 -31.875 C 13.222656 -31.113281 12.460938 -30.238281 12.390625 -29.25 C 12.328125 -28.320312 12.664062 -27.503906 13.40625 -26.796875 C 14.15625 -26.085938 15.125 -25.507812 16.3125 -25.0625 C 17.5 -24.613281 18.722656 -24.304688 19.984375 -24.140625 L 20.078125 -24.140625 C 23.578125 -23.710938 26.414062 -22.785156 28.59375 -21.359375 C 30.78125 -19.941406 32.351562 -18.273438 33.3125 -16.359375 C 34.269531 -14.441406 34.6875 -12.523438 34.5625 -10.609375 C 34.457031 -8.796875 33.847656 -7.035156 32.734375 -5.328125 C 31.628906 -3.628906 30.078125 -2.238281 28.078125 -1.15625 C 26.085938 -0.0820312 23.671875 0.46875 20.828125 0.5 Z M 19.9375 0.5 "/></g></g><g style="fill:#000000;fill-opacity:1;"><g transform="translate(119.018873, 73.154592)"><path style="stroke:none" d="M 16.453125 -39.65625 C 19.003906 -39.65625 21.359375 -39.144531 23.515625 -38.125 C 25.679688 -37.101562 27.570312 -35.679688 29.1875 -33.859375 C 30.8125 -32.046875 32.078125 -29.941406 32.984375 -27.546875 C 33.898438 -25.148438 34.359375 -22.578125 34.359375 -19.828125 C 34.359375 -17.085938 33.921875 -14.519531 33.046875 -12.125 C 32.171875 -9.726562 30.929688 -7.617188 29.328125 -5.796875 C 27.722656 -3.984375 25.828125 -2.5625 23.640625 -1.53125 C 21.460938 -0.507812 19.066406 0 16.453125 0 L 3.46875 0 L 3.46875 -39.65625 Z M 16.453125 -32.28125 L 10.859375 -32.28125 L 10.859375 -7.390625 L 16.453125 -7.390625 C 18.304688 -7.390625 19.828125 -7.75 21.015625 -8.46875 C 22.210938 -9.195312 23.140625 -9.941406 23.796875 -10.703125 C 24.859375 -11.859375 25.648438 -13.222656 26.171875 -14.796875 C 26.703125 -16.367188 26.96875 -18.046875 26.96875 -19.828125 C 26.96875 -22.171875 26.503906 -24.273438 25.578125 -26.140625 C 24.648438 -28.015625 23.394531 -29.503906 21.8125 -30.609375 C 20.226562 -31.722656 18.441406 -32.28125 16.453125 -32.28125 Z M 16.453125 -32.28125 "/></g></g><g clip-rule="nonzero" clip-path="url(#e8ba60e95a)"><path style=" stroke:none;fill-rule:nonzero;fill:#ff3131;fill-opacity:1;" d="M 59.777344 51.074219 C 59.523438 51.074219 59.316406 50.863281 59.316406 50.613281 L 59.316406 32.175781 C 59.316406 31.925781 59.523438 31.714844 59.777344 31.714844 C 60.027344 31.714844 60.238281 31.925781 60.238281 32.175781 L 60.238281 50.613281 C 60.238281 50.863281 60.027344 51.074219 59.777344 51.074219 "/></g><g clip-rule="nonzero" clip-path="url(#d3772cd342)"><path style=" stroke:none;fill-rule:nonzero;fill:#ff3131;fill-opacity:1;" d="M 59.777344 75.039062 C 59.523438 75.039062 59.316406 74.828125 59.316406 74.578125 L 59.316406 56.140625 C 59.316406 55.890625 59.523438 55.679688 59.777344 55.679688 C 60.027344 55.679688 60.238281 55.890625 60.238281 56.140625 L 60.238281 74.578125 C 60.238281 74.828125 60.027344 75.039062 59.777344 75.039062 "/></g><g clip-rule="nonzero" clip-path="url(#7677cb9a05)"><path style=" stroke:none;fill-rule:nonzero;fill:#ff3131;fill-opacity:1;" d="M 80.976562 53.839844 L 62.542969 53.839844 C 62.289062 53.839844 62.082031 53.628906 62.082031 53.378906 C 62.082031 53.125 62.289062 52.917969 62.542969 52.917969 L 80.976562 52.917969 C 81.230469 52.917969 81.4375 53.125 81.4375 53.378906 C 81.4375 53.628906 81.230469 53.839844 80.976562 53.839844 "/></g><g clip-rule="nonzero" clip-path="url(#bd8c140527)"><path style=" stroke:none;fill-rule:nonzero;fill:#ff3131;fill-opacity:1;" d="M 57.011719 53.839844 L 38.578125 53.839844 C 38.324219 53.839844 38.117188 53.628906 38.117188 53.378906 C 38.117188 53.125 38.324219 52.917969 38.578125 52.917969 L 57.011719 52.917969 C 57.261719 52.917969 57.472656 53.125 57.472656 53.378906 C 57.472656 53.628906 57.261719 53.839844 57.011719 53.839844 "/></g></g></svg>