<svg xmlns="http://www.w3.org/2000/svg" xmlns:xlink="http://www.w3.org/1999/xlink" width="500" zoomAndPan="magnify" viewBox="0 0 375 135.000003" height="180" preserveAspectRatio="xMidYMid meet" version="1.2"><defs><clipPath id="cbb631140b"><path d="M 1.378906 0 L 373.621094 0 L 373.621094 134.007812 L 1.378906 134.007812 Z M 1.378906 0 "/></clipPath><clipPath id="b364a82ef2"><path d="M 7.46875 7.03125 L 367.53125 7.03125 L 367.53125 127.417969 L 7.46875 127.417969 Z M 7.46875 7.03125 "/></clipPath><clipPath id="9c30dc633a"><path d="M 7.480469 7.03125 L 367.511719 7.03125 L 367.511719 127.40625 L 7.480469 127.40625 Z M 7.480469 7.03125 "/></clipPath><clipPath id="6704900fee"><path d="M 87.203125 66.261719 L 99.113281 66.261719 L 99.113281 81.152344 L 87.203125 81.152344 Z M 87.203125 66.261719 "/></clipPath><clipPath id="2b4bede87b"><path d="M 75.136719 66.261719 L 87.046875 66.261719 L 87.046875 81.152344 L 75.136719 81.152344 Z M 75.136719 66.261719 "/></clipPath><clipPath id="49b944d14a"><path d="M 81.167969 56.011719 L 93.082031 56.011719 L 93.082031 70.902344 L 81.167969 70.902344 Z M 81.167969 56.011719 "/></clipPath><clipPath id="cf23e983b9"><path d="M 69.457031 56.011719 L 81.367188 56.011719 L 81.367188 70.902344 L 69.457031 70.902344 Z M 69.457031 56.011719 "/></clipPath><clipPath id="966ba901e0"><path d="M 93.234375 56.011719 L 105.148438 56.011719 L 105.148438 70.902344 L 93.234375 70.902344 Z M 93.234375 56.011719 "/></clipPath><clipPath id="f0538b23df"><path d="M 87.203125 45.296875 L 99.113281 45.296875 L 99.113281 60.1875 L 87.203125 60.1875 Z M 87.203125 45.296875 "/></clipPath><clipPath id="7452bde802"><path d="M 99.097656 46.875 L 106.542969 46.875 L 106.542969 60.277344 L 99.097656 60.277344 Z M 99.097656 46.875 "/></clipPath><clipPath id="66dd8b214a"><path d="M 75.136719 45.296875 L 87.046875 45.296875 L 87.046875 60.1875 L 75.136719 60.1875 Z M 75.136719 45.296875 "/></clipPath><clipPath id="b8287afdfd"><path d="M 35 29.0625 L 121 29.0625 L 121 114 L 35 114 Z M 35 29.0625 "/></clipPath><clipPath id="0d3afcb02f"><path d="M 30 107 L 42 107 L 42 119.890625 L 30 119.890625 Z M 30 107 "/></clipPath><clipPath id="0e73eb3da9"><path d="M 104 86 L 347 86 L 347 115 L 104 115 Z M 104 86 "/></clipPath><clipPath id="85a353a0a0"><path d="M 103.066406 105.226562 L 346.371094 80.03125 L 349.207031 107.394531 L 105.898438 132.589844 Z M 103.066406 105.226562 "/></clipPath><clipPath id="73b8dd72ef"><path d="M 103.066406 105.226562 L 346.371094 80.03125 L 349.207031 107.394531 L 105.898438 132.589844 Z M 103.066406 105.226562 "/></clipPath><clipPath id="aae21fab2a"><path d="M 103.066406 105.226562 L 346.371094 80.03125 L 349.207031 107.394531 L 105.898438 132.589844 Z M 103.066406 105.226562 "/></clipPath><clipPath id="0c95156110"><path d="M 104 82 L 352 82 L 352 115 L 104 115 Z M 104 82 "/></clipPath><clipPath id="9875936d5a"><path d="M 103.042969 104.613281 L 351.207031 75.964844 L 354.445312 104.027344 L 106.285156 132.679688 Z M 103.042969 104.613281 "/></clipPath><clipPath id="7085f7ddd9"><path d="M 103.042969 104.613281 L 351.207031 75.964844 L 354.445312 104.027344 L 106.285156 132.679688 Z M 103.042969 104.613281 "/></clipPath></defs><g id="65ae9e59c8"><g clip-rule="nonzero" clip-path="url(#cbb631140b)"><path style=" stroke:none;fill-rule:nonzero;fill:#ffffff;fill-opacity:1;" d="M 1.378906 0 L 373.621094 0 L 373.621094 134.007812 L 1.378906 134.007812 Z M 1.378906 0 "/><path style=" stroke:none;fill-rule:nonzero;fill:#ffffff;fill-opacity:1;" d="M 1.378906 0 L 373.621094 0 L 373.621094 134.007812 L 1.378906 134.007812 Z M 1.378906 0 "/></g><g clip-rule="nonzero" clip-path="url(#b364a82ef2)"><path style=" stroke:none;fill-rule:nonzero;fill:#e3e3e3;fill-opacity:1;" d="M 7.46875 7.03125 L 367.679688 7.03125 L 367.679688 127.417969 L 7.46875 127.417969 Z M 7.46875 7.03125 "/></g><g clip-rule="nonzero" clip-path="url(#9c30dc633a)"><path style="fill:none;stroke-width:2;stroke-linecap:butt;stroke-linejoin:miter;stroke:#000000;stroke-opacity:1;stroke-miterlimit:4;" d="M 0.00238857 -0.00230295 L 483.599929 -0.00230295 L 483.599929 161.686589 L 0.00238857 161.686589 Z M 0.00238857 -0.00230295 " transform="matrix(0.744485,0,0,0.744485,7.47869,7.032965)"/></g><g clip-rule="nonzero" clip-path="url(#6704900fee)"><path style=" stroke:none;fill-rule:evenodd;fill:#a6a6a6;fill-opacity:1;" d="M 105.121094 87.667969 L 107.902344 89.269531 L 110.679688 90.875 L 110.679688 97.292969 L 107.902344 98.898438 L 105.121094 100.503906 L 102.339844 98.898438 L 99.5625 97.292969 L 99.5625 90.875 L 102.339844 89.269531 Z M 92.761719 66.261719 L 95.542969 67.867188 L 98.324219 69.46875 L 98.324219 75.890625 L 95.542969 77.496094 L 92.761719 79.097656 L 89.984375 77.496094 L 87.203125 75.890625 L 87.203125 69.46875 L 89.984375 67.867188 Z M 105.121094 66.261719 L 107.902344 67.867188 L 110.679688 69.46875 L 110.679688 75.890625 L 107.902344 77.496094 L 105.121094 79.097656 L 102.339844 77.496094 L 99.5625 75.890625 L 99.5625 69.46875 L 102.339844 67.867188 Z M 98.941406 76.964844 L 101.722656 78.566406 L 104.5 80.171875 L 104.5 86.589844 L 101.722656 88.195312 L 98.941406 89.800781 L 96.164062 88.195312 L 93.382812 86.589844 L 93.382812 80.171875 L 96.164062 78.566406 Z M 98.941406 76.964844 "/></g><g clip-rule="nonzero" clip-path="url(#2b4bede87b)"><path style=" stroke:none;fill-rule:evenodd;fill:#a6a6a6;fill-opacity:1;" d="M 93.054688 87.667969 L 95.835938 89.269531 L 98.613281 90.875 L 98.613281 97.292969 L 95.835938 98.898438 L 93.054688 100.503906 L 90.277344 98.898438 L 87.496094 97.292969 L 87.496094 90.875 L 90.277344 89.269531 Z M 80.695312 66.261719 L 83.476562 67.867188 L 86.257812 69.46875 L 86.257812 75.890625 L 83.476562 77.496094 L 80.695312 79.097656 L 77.917969 77.496094 L 75.136719 75.890625 L 75.136719 69.46875 L 77.917969 67.867188 Z M 93.054688 66.261719 L 95.835938 67.867188 L 98.613281 69.46875 L 98.613281 75.890625 L 95.835938 77.496094 L 93.054688 79.097656 L 90.277344 77.496094 L 87.496094 75.890625 L 87.496094 69.46875 L 90.277344 67.867188 Z M 86.875 76.964844 L 89.65625 78.566406 L 92.433594 80.171875 L 92.433594 86.589844 L 89.65625 88.195312 L 86.875 89.800781 L 84.097656 88.195312 L 81.316406 86.589844 L 81.316406 80.171875 L 84.097656 78.566406 Z M 86.875 76.964844 "/></g><g clip-rule="nonzero" clip-path="url(#49b944d14a)"><path style=" stroke:none;fill-rule:evenodd;fill:#a6a6a6;fill-opacity:1;" d="M 99.089844 77.417969 L 101.867188 79.023438 L 104.648438 80.628906 L 104.648438 87.046875 L 101.867188 88.652344 L 99.089844 90.253906 L 96.308594 88.652344 L 93.527344 87.046875 L 93.527344 80.628906 Z M 86.730469 56.011719 L 89.507812 57.617188 L 92.289062 59.222656 L 92.289062 65.640625 L 89.507812 67.246094 L 86.730469 68.851562 L 83.953125 67.246094 L 81.171875 65.640625 L 81.171875 59.222656 L 83.953125 57.617188 Z M 99.089844 56.011719 L 101.867188 57.617188 L 104.648438 59.222656 L 104.648438 65.640625 L 101.867188 67.246094 L 99.089844 68.851562 L 93.527344 65.640625 L 93.527344 59.222656 Z M 92.910156 66.714844 L 95.6875 68.320312 L 98.46875 69.925781 L 98.46875 76.34375 L 95.6875 77.949219 L 92.910156 79.554688 L 90.128906 77.949219 L 87.351562 76.34375 L 87.351562 69.925781 L 90.128906 68.320312 Z M 92.910156 66.714844 "/></g><g clip-rule="nonzero" clip-path="url(#cf23e983b9)"><path style=" stroke:none;fill-rule:evenodd;fill:#a6a6a6;fill-opacity:1;" d="M 87.375 77.417969 L 90.15625 79.023438 L 92.933594 80.628906 L 92.933594 87.046875 L 90.15625 88.652344 L 87.375 90.253906 L 84.597656 88.652344 L 81.816406 87.046875 L 81.816406 80.628906 L 84.597656 79.023438 Z M 75.015625 56.011719 L 80.578125 59.222656 L 80.578125 65.640625 L 75.015625 68.851562 L 69.460938 65.640625 L 69.460938 59.222656 Z M 87.375 56.011719 L 90.15625 57.617188 L 92.933594 59.222656 L 92.933594 65.640625 L 90.15625 67.246094 L 87.375 68.851562 L 84.597656 67.246094 L 81.816406 65.640625 L 81.816406 59.222656 L 84.597656 57.617188 Z M 81.199219 66.714844 L 86.753906 69.925781 L 86.753906 76.34375 L 81.199219 79.554688 L 75.636719 76.34375 L 75.636719 69.925781 Z M 81.199219 66.714844 "/></g><g clip-rule="nonzero" clip-path="url(#966ba901e0)"><path style=" stroke:none;fill-rule:evenodd;fill:#a6a6a6;fill-opacity:1;" d="M 111.15625 77.417969 L 113.933594 79.023438 L 116.714844 80.628906 L 116.714844 87.046875 L 113.933594 88.652344 L 111.15625 90.253906 L 108.375 88.652344 L 105.59375 87.046875 L 105.59375 80.628906 Z M 98.796875 56.011719 L 101.574219 57.617188 L 104.355469 59.222656 L 104.355469 65.640625 L 101.574219 67.246094 L 98.796875 68.851562 L 96.015625 67.246094 L 93.238281 65.640625 L 93.238281 59.222656 L 96.015625 57.617188 Z M 111.15625 56.011719 L 113.933594 57.617188 L 116.714844 59.222656 L 116.714844 65.640625 L 113.933594 67.246094 L 111.15625 68.851562 L 105.59375 65.640625 L 105.59375 59.222656 Z M 104.976562 66.714844 L 107.753906 68.320312 L 110.535156 69.925781 L 110.535156 76.34375 L 107.753906 77.949219 L 104.976562 79.554688 L 102.195312 77.949219 L 99.417969 76.34375 L 99.417969 69.925781 L 102.195312 68.320312 Z M 104.976562 66.714844 "/></g><g clip-rule="nonzero" clip-path="url(#f0538b23df)"><path style=" stroke:none;fill-rule:evenodd;fill:#a6a6a6;fill-opacity:1;" d="M 105.121094 66.703125 L 107.902344 68.304688 L 110.679688 69.910156 L 110.679688 76.328125 L 107.902344 77.933594 L 105.121094 79.539062 L 102.339844 77.933594 L 99.5625 76.328125 L 99.5625 69.910156 L 102.339844 68.304688 Z M 92.761719 45.296875 L 95.542969 46.902344 L 98.324219 48.503906 L 98.324219 54.925781 L 95.542969 56.53125 L 92.761719 58.132812 L 89.984375 56.53125 L 87.203125 54.925781 L 87.203125 48.503906 L 89.984375 46.902344 Z M 105.121094 45.296875 L 107.902344 46.902344 L 110.679688 48.503906 L 110.679688 54.925781 L 107.902344 56.53125 L 105.121094 58.132812 L 102.339844 56.53125 L 99.5625 54.925781 L 99.5625 48.503906 L 102.339844 46.902344 Z M 98.941406 56 L 101.722656 57.601562 L 104.5 59.207031 L 104.5 65.625 L 101.722656 67.230469 L 98.941406 68.835938 L 96.164062 67.230469 L 93.382812 65.625 L 93.382812 59.207031 L 96.164062 57.601562 Z M 98.941406 56 "/></g><g clip-rule="nonzero" clip-path="url(#7452bde802)"><path style=" stroke:none;fill-rule:evenodd;fill:#a6a6a6;fill-opacity:1;" d="M 117.015625 66.703125 L 119.796875 68.304688 L 122.574219 69.910156 L 122.574219 76.328125 L 119.796875 77.933594 L 117.015625 79.539062 L 114.238281 77.933594 L 111.457031 76.328125 L 111.457031 69.910156 L 114.238281 68.304688 Z M 104.65625 45.296875 L 107.4375 46.902344 L 110.21875 48.503906 L 110.21875 54.925781 L 107.4375 56.53125 L 104.65625 58.132812 L 101.878906 56.53125 L 99.101562 54.925781 L 99.101562 48.503906 L 101.878906 46.902344 Z M 117.015625 45.296875 L 119.796875 46.902344 L 122.574219 48.503906 L 122.574219 54.925781 L 119.796875 56.53125 L 117.015625 58.132812 L 114.238281 56.53125 L 111.457031 54.925781 L 111.457031 48.503906 L 114.238281 46.902344 Z M 110.839844 56 L 113.617188 57.601562 L 116.398438 59.207031 L 116.398438 65.625 L 113.617188 67.230469 L 110.839844 68.835938 L 105.277344 65.625 L 105.277344 59.207031 L 108.058594 57.601562 Z M 110.839844 56 "/></g><g clip-rule="nonzero" clip-path="url(#66dd8b214a)"><path style=" stroke:none;fill-rule:evenodd;fill:#a6a6a6;fill-opacity:1;" d="M 93.054688 66.703125 L 95.835938 68.304688 L 98.613281 69.910156 L 98.613281 76.328125 L 95.835938 77.933594 L 93.054688 79.539062 L 90.277344 77.933594 L 87.496094 76.328125 L 87.496094 69.910156 L 90.277344 68.304688 Z M 80.695312 45.296875 L 83.476562 46.902344 L 86.257812 48.503906 L 86.257812 54.925781 L 83.476562 56.53125 L 80.695312 58.132812 L 77.917969 56.53125 L 75.136719 54.925781 L 75.136719 48.503906 L 77.917969 46.902344 Z M 93.054688 45.296875 L 95.835938 46.902344 L 98.613281 48.503906 L 98.613281 54.925781 L 95.835938 56.53125 L 93.054688 58.132812 L 90.277344 56.53125 L 87.496094 54.925781 L 87.496094 48.503906 L 90.277344 46.902344 Z M 86.875 56 L 89.65625 57.601562 L 92.433594 59.207031 L 92.433594 65.625 L 89.65625 67.230469 L 86.875 68.835938 L 84.097656 67.230469 L 81.316406 65.625 L 81.316406 59.207031 L 84.097656 57.601562 Z M 86.875 56 "/></g><g clip-rule="nonzero" clip-path="url(#b8287afdfd)"><path style=" stroke:none;fill-rule:nonzero;fill:#000000;fill-opacity:1;" d="M 110.660156 38.632812 C 104.539062 32.511719 96.402344 29.148438 87.746094 29.148438 C 79.085938 29.148438 70.949219 32.511719 64.824219 38.632812 C 58.703125 44.75 55.328125 52.886719 55.328125 61.542969 C 55.328125 69.066406 57.886719 76.191406 62.574219 81.949219 L 56.316406 88.203125 L 54.894531 86.777344 L 35.910156 105.742188 L 43.507812 113.335938 L 62.484375 94.371094 L 61.066406 92.945312 L 67.320312 86.691406 C 73.082031 91.382812 80.210938 93.933594 87.738281 93.933594 C 96.398438 93.933594 104.535156 90.5625 110.660156 84.441406 C 123.300781 71.8125 123.300781 51.261719 110.660156 38.632812 Z M 107.160156 80.941406 C 101.972656 86.125 95.078125 88.980469 87.738281 88.980469 C 80.402344 88.980469 73.511719 86.125 68.320312 80.941406 C 63.136719 75.761719 60.28125 68.871094 60.28125 61.539062 C 60.28125 54.207031 63.136719 47.3125 68.324219 42.132812 C 73.507812 36.949219 80.402344 34.09375 87.742188 34.09375 C 95.078125 34.09375 101.96875 36.949219 107.160156 42.132812 C 117.863281 52.835938 117.863281 70.246094 107.160156 80.941406 Z M 107.160156 80.941406 "/></g><path style=" stroke:none;fill-rule:nonzero;fill:#000000;fill-opacity:1;" d="M 87.742188 37.785156 C 81.390625 37.785156 75.429688 40.261719 70.9375 44.742188 C 70.261719 45.417969 70.261719 46.519531 70.9375 47.195312 C 71.613281 47.871094 72.714844 47.871094 73.390625 47.195312 C 77.226562 43.363281 82.320312 41.257812 87.742188 41.257812 C 93.167969 41.257812 98.261719 43.363281 102.097656 47.195312 C 102.433594 47.535156 102.878906 47.703125 103.324219 47.703125 C 103.765625 47.703125 104.210938 47.535156 104.554688 47.195312 C 105.230469 46.519531 105.230469 45.417969 104.554688 44.742188 C 100.058594 40.261719 94.089844 37.785156 87.742188 37.785156 Z M 87.742188 37.785156 "/><g clip-rule="nonzero" clip-path="url(#0d3afcb02f)"><path style=" stroke:none;fill-rule:nonzero;fill:#000000;fill-opacity:1;" d="M 31.460938 110.195312 C 29.523438 112.125 29.523438 115.265625 31.460938 117.195312 L 32.050781 117.789062 C 33.988281 119.71875 37.125 119.71875 39.058594 117.789062 L 41.667969 115.179688 L 34.070312 107.589844 Z M 31.460938 110.195312 "/></g><g style="fill:#000000;fill-opacity:1;"><g transform="translate(13.126935, 84.887597)"><path style="stroke:none" d="M 44.15625 -48 L 44.15625 0 L 35.21875 0 L 35.21875 -26.640625 L 29.09375 -12.0625 L 19.265625 -12.0625 L 13.203125 -26.515625 L 13.203125 0 L 4.203125 0 L 4.203125 -48 L 14.09375 -48 L 24.1875 -23.8125 L 34.3125 -48 Z M 44.15625 -48 "/></g></g><g style="fill:#000000;fill-opacity:1;"><g transform="translate(61.488018, 84.887597)"><path style="stroke:none" d="M 26.640625 -48.59375 C 30.035156 -48.59375 33.210938 -47.953125 36.171875 -46.671875 C 39.140625 -45.398438 41.742188 -43.644531 43.984375 -41.40625 C 46.222656 -39.164062 47.984375 -36.5625 49.265625 -33.59375 C 50.546875 -30.632812 51.1875 -27.457031 51.1875 -24.0625 C 51.1875 -20.65625 50.546875 -17.472656 49.265625 -14.515625 C 47.984375 -11.554688 46.222656 -8.957031 43.984375 -6.71875 C 41.742188 -4.476562 39.140625 -2.71875 36.171875 -1.4375 C 33.210938 -0.15625 30.035156 0.484375 26.640625 0.484375 C 23.242188 0.484375 20.0625 -0.15625 17.09375 -1.4375 C 14.132812 -2.71875 11.535156 -4.476562 9.296875 -6.71875 C 7.054688 -8.957031 5.296875 -11.554688 4.015625 -14.515625 C 2.734375 -17.472656 2.09375 -20.65625 2.09375 -24.0625 C 2.09375 -27.457031 2.734375 -30.632812 4.015625 -33.59375 C 5.296875 -36.5625 7.054688 -39.164062 9.296875 -41.40625 C 11.535156 -43.644531 14.132812 -45.398438 17.09375 -46.671875 C 20.0625 -47.953125 23.242188 -48.59375 26.640625 -48.59375 Z M 26.640625 -39.421875 C 23.835938 -39.421875 21.347656 -38.726562 19.171875 -37.34375 C 16.992188 -35.96875 15.285156 -34.117188 14.046875 -31.796875 C 12.804688 -29.472656 12.1875 -26.894531 12.1875 -24.0625 C 12.1875 -21.257812 12.804688 -18.6875 14.046875 -16.34375 C 15.285156 -14.007812 16.992188 -12.148438 19.171875 -10.765625 C 21.347656 -9.390625 23.835938 -8.703125 26.640625 -8.703125 C 29.484375 -8.703125 31.992188 -9.390625 34.171875 -10.765625 C 36.347656 -12.148438 38.054688 -14.007812 39.296875 -16.34375 C 40.535156 -18.6875 41.15625 -21.257812 41.15625 -24.0625 C 41.15625 -26.894531 40.535156 -29.472656 39.296875 -31.796875 C 38.054688 -34.117188 36.347656 -35.96875 34.171875 -37.34375 C 31.992188 -38.726562 29.484375 -39.421875 26.640625 -39.421875 Z M 26.640625 -39.421875 "/></g></g><g style="fill:#000000;fill-opacity:1;"><g transform="translate(114.76921, 84.887597)"><path style="stroke:none" d="M 41.703125 -30 C 41.703125 -27 41.289062 -24.21875 40.46875 -21.65625 C 39.644531 -19.09375 38.234375 -16.992188 36.234375 -15.359375 L 41.703125 0 L 32.28125 0 L 27.953125 -12.125 C 26.992188 -12 25.976562 -11.9375 24.90625 -11.9375 L 13.203125 -11.9375 L 13.203125 0 L 4.203125 0 L 4.203125 -48 L 24.90625 -48 C 28.976562 -48 32.242188 -47.1875 34.703125 -45.5625 C 37.171875 -43.945312 38.953125 -41.78125 40.046875 -39.0625 C 41.148438 -36.34375 41.703125 -33.320312 41.703125 -30 Z M 13.203125 -20.9375 L 24.90625 -20.9375 C 27.976562 -20.9375 30.015625 -21.578125 31.015625 -22.859375 C 32.140625 -24.222656 32.703125 -26.601562 32.703125 -30 C 32.703125 -33.238281 32.117188 -35.597656 30.953125 -37.078125 C 30.835938 -37.234375 30.578125 -37.472656 30.171875 -37.796875 C 29.773438 -38.117188 29.164062 -38.410156 28.34375 -38.671875 C 27.53125 -38.929688 26.382812 -39.0625 24.90625 -39.0625 L 13.203125 -39.0625 Z M 13.203125 -20.9375 "/></g></g><g style="fill:#000000;fill-opacity:1;"><g transform="translate(160.670238, 84.887597)"><path style="stroke:none" d="M 24.90625 -48 C 28.976562 -48 32.242188 -47.1875 34.703125 -45.5625 C 37.171875 -43.945312 38.953125 -41.78125 40.046875 -39.0625 C 41.148438 -36.34375 41.703125 -33.320312 41.703125 -30 C 41.703125 -26.675781 41.179688 -23.644531 40.140625 -20.90625 C 39.097656 -18.164062 37.359375 -15.984375 34.921875 -14.359375 C 32.484375 -12.742188 29.144531 -11.9375 24.90625 -11.9375 L 13.203125 -11.9375 L 13.203125 0 L 4.203125 0 L 4.203125 -48 Z M 31.015625 -22.859375 C 32.140625 -24.222656 32.703125 -26.601562 32.703125 -30 C 32.703125 -33.238281 32.117188 -35.597656 30.953125 -37.078125 C 30.835938 -37.234375 30.578125 -37.472656 30.171875 -37.796875 C 29.773438 -38.117188 29.164062 -38.410156 28.34375 -38.671875 C 27.53125 -38.929688 26.382812 -39.0625 24.90625 -39.0625 L 13.203125 -39.0625 L 13.203125 -20.9375 L 24.90625 -20.9375 C 27.976562 -20.9375 30.015625 -21.578125 31.015625 -22.859375 Z M 31.015625 -22.859375 "/></g></g><g style="fill:#000000;fill-opacity:1;"><g transform="translate(206.571266, 84.887597)"><path style="stroke:none" d="M 32.703125 -47.640625 L 41.640625 -47.640625 L 41.640625 0.421875 L 32.703125 0.421875 L 32.703125 -16.796875 L 13.203125 -16.796875 L 13.203125 0.421875 L 4.203125 0.421875 L 4.203125 -47.640625 L 13.203125 -47.640625 L 13.203125 -25.734375 L 32.703125 -25.734375 Z M 32.703125 -47.640625 "/></g></g><g style="fill:#000000;fill-opacity:1;"><g transform="translate(252.412293, 84.887597)"><path style="stroke:none" d="M 24.125 0.59375 C 23.164062 0.59375 21.804688 0.492188 20.046875 0.296875 C 18.285156 0.0976562 16.394531 -0.347656 14.375 -1.046875 C 12.351562 -1.742188 10.421875 -2.832031 8.578125 -4.3125 C 6.859375 -5.757812 5.398438 -7.363281 4.203125 -9.125 L 11.515625 -14.09375 C 11.921875 -13.539062 12.332031 -13.019531 12.75 -12.53125 C 13.164062 -12.050781 13.632812 -11.613281 14.15625 -11.21875 C 15.15625 -10.375 16.265625 -9.753906 17.484375 -9.359375 C 18.703125 -8.960938 19.863281 -8.679688 20.96875 -8.515625 C 22.070312 -8.359375 22.984375 -8.28125 23.703125 -8.28125 C 24.421875 -8.28125 24.78125 -8.28125 24.78125 -8.28125 L 25.078125 -8.28125 C 27.554688 -8.28125 29.472656 -8.816406 30.828125 -9.890625 C 32.191406 -10.972656 32.914062 -12.15625 33 -13.4375 C 33.082031 -14.84375 32.351562 -16.242188 30.8125 -17.640625 C 29.269531 -19.035156 26.738281 -19.972656 23.21875 -20.453125 C 17.9375 -21.015625 13.738281 -22.738281 10.625 -25.625 C 9.0625 -27.0625 7.890625 -28.6875 7.109375 -30.5 C 6.328125 -32.320312 6.019531 -34.195312 6.1875 -36.125 C 6.382812 -38.320312 7.203125 -40.410156 8.640625 -42.390625 C 10.078125 -44.367188 12.207031 -45.945312 15.03125 -47.125 C 17.851562 -48.3125 21.382812 -48.785156 25.625 -48.546875 C 27.539062 -48.546875 29.445312 -48.300781 31.34375 -47.8125 C 33.25 -47.332031 35.019531 -46.710938 36.65625 -45.953125 C 38.300781 -45.191406 39.679688 -44.394531 40.796875 -43.5625 L 35.640625 -36.359375 C 34.921875 -36.921875 33.988281 -37.453125 32.84375 -37.953125 C 31.707031 -38.453125 30.5 -38.867188 29.21875 -39.203125 C 27.9375 -39.546875 26.695312 -39.71875 25.5 -39.71875 L 25.3125 -39.71875 C 22.039062 -39.875 19.523438 -39.492188 17.765625 -38.578125 C 16.003906 -37.660156 15.082031 -36.601562 15 -35.40625 C 14.914062 -34.28125 15.320312 -33.285156 16.21875 -32.421875 C 17.125 -31.566406 18.296875 -30.867188 19.734375 -30.328125 C 21.179688 -29.785156 22.664062 -29.414062 24.1875 -29.21875 L 24.296875 -29.21875 C 28.535156 -28.695312 31.972656 -27.578125 34.609375 -25.859375 C 37.253906 -24.140625 39.15625 -22.117188 40.3125 -19.796875 C 41.476562 -17.472656 41.976562 -15.15625 41.8125 -12.84375 C 41.695312 -10.644531 40.96875 -8.515625 39.625 -6.453125 C 38.289062 -4.390625 36.410156 -2.707031 33.984375 -1.40625 C 31.566406 -0.101562 28.640625 0.5625 25.203125 0.59375 Z M 24.125 0.59375 "/></g></g><g style="fill:#000000;fill-opacity:1;"><g transform="translate(298.433336, 84.887597)"><path style="stroke:none" d="M 13.203125 -0.1875 L 13.203125 -48 L 4.203125 -48 L 4.203125 -0.1875 Z M 13.203125 -0.1875 "/></g></g><g style="fill:#000000;fill-opacity:1;"><g transform="translate(315.833722, 84.887597)"><path style="stroke:none" d="M 24.125 0.59375 C 23.164062 0.59375 21.804688 0.492188 20.046875 0.296875 C 18.285156 0.0976562 16.394531 -0.347656 14.375 -1.046875 C 12.351562 -1.742188 10.421875 -2.832031 8.578125 -4.3125 C 6.859375 -5.757812 5.398438 -7.363281 4.203125 -9.125 L 11.515625 -14.09375 C 11.921875 -13.539062 12.332031 -13.019531 12.75 -12.53125 C 13.164062 -12.050781 13.632812 -11.613281 14.15625 -11.21875 C 15.15625 -10.375 16.265625 -9.753906 17.484375 -9.359375 C 18.703125 -8.960938 19.863281 -8.679688 20.96875 -8.515625 C 22.070312 -8.359375 22.984375 -8.28125 23.703125 -8.28125 C 24.421875 -8.28125 24.78125 -8.28125 24.78125 -8.28125 L 25.078125 -8.28125 C 27.554688 -8.28125 29.472656 -8.816406 30.828125 -9.890625 C 32.191406 -10.972656 32.914062 -12.15625 33 -13.4375 C 33.082031 -14.84375 32.351562 -16.242188 30.8125 -17.640625 C 29.269531 -19.035156 26.738281 -19.972656 23.21875 -20.453125 C 17.9375 -21.015625 13.738281 -22.738281 10.625 -25.625 C 9.0625 -27.0625 7.890625 -28.6875 7.109375 -30.5 C 6.328125 -32.320312 6.019531 -34.195312 6.1875 -36.125 C 6.382812 -38.320312 7.203125 -40.410156 8.640625 -42.390625 C 10.078125 -44.367188 12.207031 -45.945312 15.03125 -47.125 C 17.851562 -48.3125 21.382812 -48.785156 25.625 -48.546875 C 27.539062 -48.546875 29.445312 -48.300781 31.34375 -47.8125 C 33.25 -47.332031 35.019531 -46.710938 36.65625 -45.953125 C 38.300781 -45.191406 39.679688 -44.394531 40.796875 -43.5625 L 35.640625 -36.359375 C 34.921875 -36.921875 33.988281 -37.453125 32.84375 -37.953125 C 31.707031 -38.453125 30.5 -38.867188 29.21875 -39.203125 C 27.9375 -39.546875 26.695312 -39.71875 25.5 -39.71875 L 25.3125 -39.71875 C 22.039062 -39.875 19.523438 -39.492188 17.765625 -38.578125 C 16.003906 -37.660156 15.082031 -36.601562 15 -35.40625 C 14.914062 -34.28125 15.320312 -33.285156 16.21875 -32.421875 C 17.125 -31.566406 18.296875 -30.867188 19.734375 -30.328125 C 21.179688 -29.785156 22.664062 -29.414062 24.1875 -29.21875 L 24.296875 -29.21875 C 28.535156 -28.695312 31.972656 -27.578125 34.609375 -25.859375 C 37.253906 -24.140625 39.15625 -22.117188 40.3125 -19.796875 C 41.476562 -17.472656 41.976562 -15.15625 41.8125 -12.84375 C 41.695312 -10.644531 40.96875 -8.515625 39.625 -6.453125 C 38.289062 -4.390625 36.410156 -2.707031 33.984375 -1.40625 C 31.566406 -0.101562 28.640625 0.5625 25.203125 0.59375 Z M 24.125 0.59375 "/></g></g><g clip-rule="nonzero" clip-path="url(#0e73eb3da9)"><g clip-rule="nonzero" clip-path="url(#85a353a0a0)"><g clip-rule="nonzero" clip-path="url(#73b8dd72ef)"><g clip-rule="nonzero" clip-path="url(#aae21fab2a)"><path style=" stroke:none;fill-rule:nonzero;fill:#ffffff;fill-opacity:1;" d="M 346.640625 86.351562 C 346.441406 87.007812 346.296875 87.488281 345.804688 87.824219 C 341.609375 90.675781 337.449219 93.574219 333.234375 96.390625 C 326.121094 101.148438 318.644531 105.242188 310.585938 108.230469 C 306.6875 109.675781 302.699219 110.8125 298.644531 111.734375 C 293.257812 112.960938 287.8125 113.761719 282.3125 114.199219 C 278.441406 114.507812 274.5625 114.640625 270.675781 114.652344 C 259.757812 114.683594 248.917969 113.734375 238.121094 112.265625 C 228.296875 110.929688 218.496094 109.410156 208.6875 107.945312 C 200.457031 106.710938 192.230469 105.433594 183.949219 104.582031 C 178.867188 104.058594 173.769531 103.65625 168.667969 103.34375 C 165.1875 103.132812 161.6875 103.09375 158.195312 103.113281 C 152.574219 103.144531 146.960938 103.457031 141.382812 104.195312 C 138.328125 104.601562 135.269531 105.046875 132.242188 105.621094 C 122.957031 107.386719 113.976562 110.082031 105.542969 114.398438 C 105.207031 114.570312 104.855469 114.714844 104.4375 114.75 C 104.875 114.464844 105.304688 114.160156 105.757812 113.894531 C 110.558594 111.0625 115.605469 108.746094 120.832031 106.800781 C 124.351562 105.492188 127.925781 104.347656 131.570312 103.445312 C 134.34375 102.757812 137.148438 102.1875 139.964844 101.699219 C 142.621094 101.242188 145.300781 100.859375 147.988281 100.621094 C 151.554688 100.308594 155.132812 100.074219 158.710938 99.972656 C 163.824219 99.824219 168.9375 99.976562 174.046875 100.269531 C 182.53125 100.761719 190.96875 101.679688 199.375 102.867188 C 209.464844 104.292969 219.539062 105.824219 229.621094 107.285156 C 237.835938 108.476562 246.066406 109.542969 254.34375 110.1875 C 258.703125 110.527344 263.074219 110.742188 267.445312 110.855469 C 271.210938 110.953125 274.988281 110.917969 278.753906 110.777344 C 282.800781 110.628906 286.84375 110.3125 290.84375 109.628906 C 293.503906 109.175781 296.1875 108.816406 298.8125 108.214844 C 301.894531 107.511719 304.949219 106.671875 307.972656 105.746094 C 317.59375 102.804688 326.566406 98.457031 335.121094 93.226562 C 338.699219 91.039062 342.300781 88.894531 345.890625 86.734375 C 346.089844 86.617188 346.300781 86.523438 346.640625 86.351562 Z M 346.640625 86.351562 "/></g></g></g></g><g clip-rule="nonzero" clip-path="url(#0c95156110)"><g clip-rule="nonzero" clip-path="url(#9875936d5a)"><g clip-rule="nonzero" clip-path="url(#7085f7ddd9)"><path style=" stroke:none;fill-rule:nonzero;fill:#000000;fill-opacity:1;" d="M 351.570312 82.449219 C 351.375 83.125 351.234375 83.621094 350.734375 83.972656 C 346.488281 86.949219 342.273438 89.96875 338.003906 92.914062 C 330.796875 97.878906 323.214844 102.167969 315.023438 105.328125 C 311.058594 106.859375 307 108.070312 302.867188 109.066406 C 297.386719 110.386719 291.832031 111.269531 286.222656 111.78125 C 282.273438 112.144531 278.3125 112.324219 274.339844 112.378906 C 263.191406 112.535156 252.105469 111.683594 241.0625 110.300781 C 231.011719 109.042969 220.980469 107.59375 210.945312 106.199219 C 202.523438 105.027344 194.105469 103.808594 185.636719 103.03125 C 180.441406 102.550781 175.226562 102.195312 170.015625 101.933594 C 166.453125 101.757812 162.878906 101.753906 159.316406 101.816406 C 153.574219 101.910156 147.84375 102.296875 142.15625 103.121094 C 139.039062 103.570312 135.921875 104.0625 132.835938 104.6875 C 123.378906 106.605469 114.242188 109.476562 105.679688 114.007812 C 105.339844 114.1875 104.984375 114.339844 104.554688 114.382812 C 105 114.082031 105.433594 113.761719 105.894531 113.484375 C 110.761719 110.523438 115.886719 108.089844 121.199219 106.03125 C 124.777344 104.644531 128.414062 103.429688 132.125 102.460938 C 134.945312 101.722656 137.804688 101.105469 140.675781 100.574219 C 143.382812 100.070312 146.117188 99.648438 148.855469 99.375 C 152.496094 99.011719 156.148438 98.730469 159.796875 98.582031 C 165.019531 98.375 170.246094 98.472656 175.46875 98.714844 C 184.140625 99.125 192.769531 99.972656 201.367188 101.09375 C 211.691406 102.441406 222 103.902344 232.320312 105.285156 C 240.722656 106.414062 249.144531 107.414062 257.605469 107.980469 C 262.0625 108.28125 266.527344 108.453125 270.992188 108.519531 C 274.839844 108.574219 278.699219 108.496094 282.542969 108.308594 C 286.675781 108.109375 290.796875 107.738281 294.875 106.992188 C 297.585938 106.496094 300.324219 106.097656 303 105.449219 C 306.136719 104.691406 309.246094 103.792969 312.320312 102.808594 C 322.113281 99.675781 331.222656 95.109375 339.894531 89.640625 C 343.519531 87.355469 347.167969 85.113281 350.808594 82.851562 C 351.011719 82.730469 351.226562 82.632812 351.570312 82.449219 Z M 351.570312 82.449219 "/></g></g></g></g></svg>